<svg width="24" height="25" viewBox="0 0 24 25" fill="none" xmlns="http://www.w3.org/2000/svg">
<rect x="0.7" y="0.814868" width="22.6" height="22.6" rx="11.3" stroke="white" stroke-opacity="0.6" stroke-width="1.4"/>
<g opacity="0.6">
<ellipse cx="12" cy="12.6982" rx="1.75" ry="1.75" stroke="white" stroke-linecap="round" stroke-linejoin="round"/>
<ellipse cx="12" cy="12.6982" rx="1.75" ry="1.75" stroke="white" stroke-opacity="0.6" stroke-linecap="round" stroke-linejoin="round"/>
<path d="M7.91667 8.69824C7.64052 8.69824 7.41667 8.9221 7.41667 9.19824C7.41667 9.47438 7.64052 9.69824 7.91667 9.69824V8.69824ZM12 7.94824C12.2761 7.94824 12.5 7.72438 12.5 7.44824C12.5 7.1721 12.2761 6.94824 12 6.94824V7.94824ZM17.75 11.5316C17.75 11.2554 17.5261 11.0316 17.25 11.0316C16.9739 11.0316 16.75 11.2554 16.75 11.5316H17.75ZM7.91667 9.69824C8.19281 9.69824 8.41667 9.47438 8.41667 9.19824C8.41667 8.9221 8.19281 8.69824 7.91667 8.69824V9.69824ZM7.91667 9.69824H9.08333V8.69824H7.91667V9.69824ZM9.08333 9.69824C10.0038 9.69824 10.75 8.95205 10.75 8.03158H9.75C9.75 8.39977 9.45152 8.69824 9.08333 8.69824V9.69824ZM10.75 8.03158C10.75 7.98555 10.7873 7.94824 10.8333 7.94824V6.94824C10.235 6.94824 9.75 7.43327 9.75 8.03158H10.75ZM10.8333 7.94824H12V6.94824H10.8333V7.94824ZM16.75 11.5316V15.6149H17.75V11.5316H16.75ZM16.75 15.6149C16.75 15.9831 16.4515 16.2816 16.0833 16.2816V17.2816C17.0038 17.2816 17.75 16.5354 17.75 15.6149H16.75ZM16.0833 16.2816H7.91667V17.2816H16.0833V16.2816ZM7.91667 16.2816C7.54848 16.2816 7.25 15.9831 7.25 15.6149H6.25C6.25 16.5354 6.99619 17.2816 7.91667 17.2816V16.2816ZM7.25 15.6149V10.3649H6.25V15.6149H7.25ZM7.25 10.3649C7.25 9.99672 7.54848 9.69824 7.91667 9.69824V8.69824C6.99619 8.69824 6.25 9.44443 6.25 10.3649H7.25Z" fill="white"/>
<path d="M7.91667 8.69824C7.64052 8.69824 7.41667 8.9221 7.41667 9.19824C7.41667 9.47438 7.64052 9.69824 7.91667 9.69824V8.69824ZM12 7.94824C12.2761 7.94824 12.5 7.72438 12.5 7.44824C12.5 7.1721 12.2761 6.94824 12 6.94824V7.94824ZM17.75 11.5316C17.75 11.2554 17.5261 11.0316 17.25 11.0316C16.9739 11.0316 16.75 11.2554 16.75 11.5316H17.75ZM7.91667 9.69824C8.19281 9.69824 8.41667 9.47438 8.41667 9.19824C8.41667 8.9221 8.19281 8.69824 7.91667 8.69824V9.69824ZM7.91667 9.69824H9.08333V8.69824H7.91667V9.69824ZM9.08333 9.69824C10.0038 9.69824 10.75 8.95205 10.75 8.03158H9.75C9.75 8.39977 9.45152 8.69824 9.08333 8.69824V9.69824ZM10.75 8.03158C10.75 7.98555 10.7873 7.94824 10.8333 7.94824V6.94824C10.235 6.94824 9.75 7.43327 9.75 8.03158H10.75ZM10.8333 7.94824H12V6.94824H10.8333V7.94824ZM16.75 11.5316V15.6149H17.75V11.5316H16.75ZM16.75 15.6149C16.75 15.9831 16.4515 16.2816 16.0833 16.2816V17.2816C17.0038 17.2816 17.75 16.5354 17.75 15.6149H16.75ZM16.0833 16.2816H7.91667V17.2816H16.0833V16.2816ZM7.91667 16.2816C7.54848 16.2816 7.25 15.9831 7.25 15.6149H6.25C6.25 16.5354 6.99619 17.2816 7.91667 17.2816V16.2816ZM7.25 15.6149V10.3649H6.25V15.6149H7.25ZM7.25 10.3649C7.25 9.99672 7.54848 9.69824 7.91667 9.69824V8.69824C6.99619 8.69824 6.25 9.44443 6.25 10.3649H7.25Z" fill="white" fill-opacity="0.6"/>
<path d="M13.75 8.61491H17.25" stroke="white" stroke-linecap="round" stroke-linejoin="round"/>
<path d="M13.75 8.61491H17.25" stroke="white" stroke-opacity="0.6" stroke-linecap="round" stroke-linejoin="round"/>
<path d="M15.5002 6.86487V10.3649" stroke="white" stroke-linecap="round" stroke-linejoin="round"/>
<path d="M15.5002 6.86487V10.3649" stroke="white" stroke-opacity="0.6" stroke-linecap="round" stroke-linejoin="round"/>
</g>
</svg>
