<svg xmlns="http://www.w3.org/2000/svg" width="13" height="19" viewBox="0 0 13 19" fill="none">
  <g clip-path="url(#clip0_2891_34818)">
    <path d="M8.40207 2.64414C7.863 3.26992 7.0005 3.76211 6.138 3.6918C6.03019 2.84805 6.45425 1.94805 6.95019 1.39961C7.48925 0.759766 8.43081 0.302734 9.19988 0.267578C9.28613 1.13945 8.93394 2.0043 8.40207 2.64414ZM9.1855 3.85352C7.93488 3.7832 6.86394 4.54961 6.27457 4.54961C5.67081 4.54961 4.76519 3.88867 3.77331 3.90977C2.48675 3.93086 1.29363 4.64102 0.639564 5.77305C-0.711686 8.04414 0.287377 11.398 1.5955 13.2473C2.23519 14.1613 2.99706 15.1668 4.00331 15.1316C4.95925 15.0965 5.333 14.527 6.483 14.527C7.64019 14.527 7.978 15.1316 8.98425 15.1176C10.0264 15.0965 10.6805 14.2035 11.3202 13.2895C12.0461 12.2488 12.348 11.2434 12.3624 11.1871C12.3408 11.166 10.3499 10.4207 10.3283 8.1707C10.3068 6.28633 11.9024 5.39336 11.9743 5.33711C11.0758 4.0293 9.67425 3.88867 9.1855 3.85352ZM16.4018 1.3082V15.0121H18.5796V10.3293H21.5911C24.3439 10.3293 26.2702 8.48008 26.2702 5.8082C26.2702 3.13633 24.3727 1.3082 21.663 1.3082H16.4018ZM18.5796 3.10117H21.088C22.9783 3.10117 24.0564 4.08555 24.0564 5.81524C24.0564 7.54492 22.9783 8.54336 21.0808 8.54336H18.5796V3.10117ZM30.2377 15.1176C31.6033 15.1176 32.8683 14.4426 33.4433 13.3668H33.4864V15.0121H35.4989V8.1918C35.4989 6.21602 33.8818 4.93633 31.3949 4.93633C29.0877 4.93633 27.3771 6.23008 27.3124 8.00195H29.2746C29.4399 7.1582 30.2377 6.60273 31.3302 6.60273C32.6599 6.60273 33.4074 7.20742 33.4074 8.32539V9.08477L30.6905 9.24648C28.1677 9.39414 26.8021 10.4066 26.8021 12.1645C26.8093 13.9363 28.218 15.1176 30.2377 15.1176ZM30.8271 13.4934C29.6699 13.4934 28.9296 12.9449 28.9296 12.1152C28.9296 11.2504 29.6411 10.7512 30.9996 10.6738L33.4146 10.5262V11.2996C33.4146 12.5793 32.3005 13.4934 30.8271 13.4934ZM38.1943 18.7387C40.3146 18.7387 41.3136 17.9441 42.1833 15.5465L45.9999 5.06992H43.7861L41.2274 13.1629H41.1843L38.6255 5.06992H36.3543L40.0343 15.0473L39.833 15.652C39.5024 16.6785 38.9633 17.0793 38.0002 17.0793C37.8277 17.0793 37.4971 17.0582 37.3605 17.0441V18.6895C37.4899 18.7176 38.0289 18.7387 38.1943 18.7387Z" fill="white"/>
  </g>
  <defs>
    <clipPath id="clip0_2891_34818">
      <rect width="13" height="19" fill="white"/>
    </clipPath>
  </defs>
</svg>