<svg xmlns="http://www.w3.org/2000/svg" width="18" height="18" viewBox="0 0 18 18" fill="none">
<path d="M9.21967 3.96967C9.51256 3.67678 9.98744 3.67678 10.2803 3.96967L14.7803 8.46967C14.921 8.61032 15 8.80109 15 9C15 9.19891 14.921 9.38968 14.7803 9.53033L10.2803 14.0303C9.98744 14.3232 9.51256 14.3232 9.21967 14.0303C8.92678 13.7374 8.92678 13.2626 9.21967 12.9697L12.4393 9.75L3.75 9.75C3.33579 9.75 3 9.41421 3 9C3 8.58579 3.33579 8.25 3.75 8.25H12.4393L9.21967 5.03033C8.92678 4.73744 8.92678 4.26256 9.21967 3.96967Z" fill="#2C2C2C"/>
</svg>