<svg xmlns="http://www.w3.org/2000/svg" width="19" height="19" viewBox="0 0 19 19" fill="none">
  <path d="M9.73195 4.19086C10.0411 3.88169 10.5424 3.88169 10.8515 4.19086L15.6015 8.94086C15.75 9.08933 15.8334 9.29069 15.8334 9.50065C15.8334 9.71061 15.75 9.91198 15.6015 10.0604L10.8515 14.8104C10.5424 15.1196 10.0411 15.1196 9.73195 14.8104C9.42279 14.5013 9.42279 14 9.73196 13.6909L13.1305 10.2923L3.95841 10.2923C3.52119 10.2923 3.16675 9.93788 3.16675 9.50065C3.16675 9.06343 3.52119 8.70899 3.95841 8.70899L13.1305 8.70899L9.73195 5.31044C9.42279 5.00128 9.42279 4.50002 9.73195 4.19086Z" fill="white"/>
</svg>