<svg xmlns="http://www.w3.org/2000/svg" width="18" height="18" viewBox="0 0 18 18" fill="none">
<g opacity="0.4">
<path d="M14.597 4.1818C14.0816 3.61948 13.1507 3.58483 12.5302 4.20533L6.45523 10.2803C6.29813 10.4374 6.29813 10.6376 6.45523 10.7947C6.61234 10.9518 6.81247 10.9518 6.96957 10.7947L11.9946 5.76967C12.2875 5.47678 12.7623 5.47678 13.0552 5.76967C13.3481 6.06257 13.3481 6.53744 13.0552 6.83033L8.03023 11.8553C7.28734 12.5982 6.13747 12.5982 5.39457 11.8553C4.65168 11.1124 4.65168 9.96257 5.39457 9.21968L11.4696 3.14467C12.6452 1.96903 14.5557 1.93077 15.6917 3.15616C16.8559 4.33247 16.8901 6.23368 15.6696 7.366L8.55523 14.4803C6.91234 16.1232 4.33747 16.1232 2.69457 14.4803C1.05168 12.8374 1.05168 10.2626 2.69457 8.61967L8.76957 2.54467C9.06247 2.25178 9.53734 2.25178 9.83023 2.54467C10.1231 2.83757 10.1231 3.31244 9.83023 3.60533L3.75523 9.68034C2.69813 10.7374 2.69813 12.3626 3.75523 13.4197C4.81234 14.4768 6.43747 14.4768 7.49457 13.4197L14.6196 6.29467C14.6273 6.28699 14.6351 6.27948 14.6431 6.27214C15.2054 5.75668 15.2401 4.82584 14.6196 4.20533C14.6119 4.19765 14.6044 4.18981 14.597 4.1818Z" fill="white"/>
</g>
</svg>