<svg xmlns="http://www.w3.org/2000/svg" width="16" height="17" viewBox="0 0 16 17" fill="none">
  <path d="M3.33333 2.50012C2.97971 2.50012 2.64057 2.6406 2.39052 2.89065C2.14048 3.14069 2 3.47983 2 3.83346" stroke="white" stroke-linecap="round" stroke-linejoin="round"/>
  <path d="M12.6667 2.50012C13.0204 2.50012 13.3595 2.6406 13.6096 2.89065C13.8596 3.14069 14.0001 3.47983 14.0001 3.83346" stroke="white" stroke-linecap="round" stroke-linejoin="round"/>
  <path d="M14.0001 13.1667C14.0001 13.5204 13.8596 13.8595 13.6096 14.1096C13.3595 14.3596 13.0204 14.5001 12.6667 14.5001" stroke="white" stroke-linecap="round" stroke-linejoin="round"/>
  <path d="M3.33333 14.5001C2.97971 14.5001 2.64057 14.3596 2.39052 14.1096C2.14048 13.8595 2 13.5204 2 13.1667" stroke="white" stroke-linecap="round" stroke-linejoin="round"/>
  <path d="M6 2.50012H6.66667" stroke="white" stroke-linecap="round" stroke-linejoin="round"/>
  <path d="M6 14.5001H6.66667" stroke="white" stroke-linecap="round" stroke-linejoin="round"/>
  <path d="M9.33325 2.50012H9.99992" stroke="white" stroke-linecap="round" stroke-linejoin="round"/>
  <path d="M9.33325 14.5001H9.99992" stroke="white" stroke-linecap="round" stroke-linejoin="round"/>
  <path d="M2 6.50012V7.16679" stroke="white" stroke-linecap="round" stroke-linejoin="round"/>
  <path d="M14 6.50012V7.16679" stroke="white" stroke-linecap="round" stroke-linejoin="round"/>
  <path d="M2 9.8335V10.5002" stroke="white" stroke-linecap="round" stroke-linejoin="round"/>
  <path d="M14 9.8335V10.5002" stroke="white" stroke-linecap="round" stroke-linejoin="round"/>
</svg>