<svg xmlns="http://www.w3.org/2000/svg" width="24" height="24" viewBox="0 0 24 24" fill="none">
  <g opacity="0.4">
    <path d="M16.9498 7.46447C17.502 7.46447 17.9498 7.91218 17.9498 8.46447L17.9498 16.9498C17.9498 17.215 17.8444 17.4693 17.6569 17.6569C17.4693 17.8444 17.215 17.9498 16.9498 17.9498L8.46448 17.9498C7.9122 17.9498 7.46448 17.502 7.46448 16.9498C7.46448 16.3975 7.9122 15.9498 8.46448 15.9498H14.5355L6.34316 7.75736C5.95263 7.36684 5.95264 6.73367 6.34316 6.34315C6.73368 5.95263 7.36685 5.95263 7.75737 6.34315L15.9498 14.5355L15.9498 8.46447C15.9498 7.91218 16.3975 7.46447 16.9498 7.46447Z" fill="white"/>
  </g>
</svg>