<svg xmlns="http://www.w3.org/2000/svg" width="36" height="36" viewBox="0 0 36 36" fill="none">
  <path d="M29.4038 25.7911C28.9292 23.4142 26.6995 23.0096 26.6924 23.0063V23.0064C26.6685 22.9994 26.897 23.0567 21.2544 21.658V21.4666H25.4081C26.2643 21.4666 26.9608 20.77 26.9608 19.9139V11.992C27.0306 11.6975 27.0308 11.3913 26.9608 11.0961V8.20493C26.9608 7.91355 26.7246 7.67752 26.4334 7.67752C26.142 7.67752 25.906 7.91355 25.906 8.20493V9.71855C25.6276 9.55233 25.3095 9.43315 24.9668 9.37416C24.8431 8.82452 24.3866 8.38999 23.8077 8.31398C23.2043 8.23467 22.747 7.8829 22.4485 7.26851C22.3088 6.98086 22.0352 6.79193 21.7166 6.76296C21.3978 6.73413 21.096 6.87033 20.9071 7.12753C20.0004 8.36137 17.4801 11.1288 13.128 11.1287C12.7969 11.1287 12.5724 11.113 12.4942 11.1095C11.6944 11.0613 11.0182 11.7003 11.0182 12.5017V13.7135C11.0182 15.6504 11.8218 17.5282 13.2227 18.8652C13.6873 19.3087 14.1998 19.6786 14.7463 19.9736V20.4119H10.6116C10.337 20.4119 10.1137 20.1885 10.1137 19.914V8.06283C10.1137 4.22074 13.2463 1.05485 17.0304 1.05485C17.0426 1.05485 17.0548 1.05492 17.067 1.05499C18.4228 1.06223 19.9881 1.44734 21.0549 2.03578C21.7309 2.40893 22.1485 2.11235 22.8161 2.11235C24.4456 2.11235 25.7514 3.7879 25.908 5.29491C25.9089 5.31698 25.9113 5.40537 25.9116 5.74399C25.9119 6.25312 26.4869 6.29222 26.4394 6.27098C26.7308 6.27077 26.9666 6.03438 26.9664 5.74315C26.9663 5.64949 26.9671 5.28225 26.9583 5.19703C26.7462 3.09912 24.9567 1.05752 22.8162 1.05752C21.9802 1.05752 21.8499 1.26945 21.5645 1.11223C20.3549 0.444891 18.5917 0.00832024 17.0727 0.000163986C12.6942 -0.028172 9.05877 3.61943 9.05877 8.06276V19.9139C9.05877 20.7701 9.75535 21.4666 10.6115 21.4666H14.7463V21.6581L9.32961 23.0006C9.32244 23.0023 9.31541 23.0044 9.30831 23.0064L8.91259 23.1231C8.90071 23.1266 8.88903 23.1305 8.87743 23.1348C8.17121 23.3983 6.93589 24.0938 6.59692 25.7914C4.99168 33.8549 5.05925 33.5106 5.05539 33.5382C4.86203 34.9059 5.54666 35.9999 7.19359 35.9999H12.897C13.1884 35.9999 13.4244 35.7638 13.4244 35.4725C13.4244 35.1811 13.1883 34.9451 12.897 34.9451H10.9123V29.9704C10.9123 29.6791 10.6762 29.443 10.3849 29.443C10.0936 29.443 9.85745 29.6791 9.85745 29.9704V34.9451H7.19359C6.49299 34.9451 6.08617 34.7195 6.07942 33.9835C6.07646 33.6245 6.06233 33.9745 7.63142 25.9976C7.8676 24.8147 8.72654 24.3206 9.22977 24.1293L9.59553 24.0214L12.7062 23.2505C16.1664 27.3269 15.9616 27.1109 16.1615 27.306C17.3165 28.4326 18.9645 28.353 20.0491 27.0793L23.3063 23.2534L26.4051 24.0214C26.4947 24.0626 28.0372 24.3339 28.3693 25.9974C29.9249 33.9052 29.9244 33.6228 29.9214 33.9831C29.9161 34.704 29.5261 34.9451 28.8072 34.9451H26.1623V29.9704C26.1623 29.6791 25.9262 29.443 25.6349 29.443C25.3435 29.443 25.1075 29.6791 25.1075 29.9704V34.9451H15.3583C15.0669 34.9451 14.8309 35.1812 14.8309 35.4725C14.8309 35.7638 15.067 35.9999 15.3583 35.9999H28.8073C30.1103 35.9999 30.9643 35.2829 30.9763 33.9915C30.9807 33.3885 30.9448 33.6766 29.4038 25.7911ZM25.0014 10.4622C25.4418 10.5932 25.7815 10.8835 25.9061 11.2419V11.8462C25.7815 12.2047 25.4418 12.495 25.0014 12.6259V10.4622ZM25.0014 13.8053V13.7079C25.331 13.647 25.637 13.5303 25.9061 13.3697V19.9139C25.9061 20.1885 25.6827 20.4117 25.4082 20.4117H21.2544V20.0041C23.4906 18.8351 25.0014 16.4943 25.0014 13.8053ZM13.951 18.102C12.7576 16.9629 12.0732 15.3634 12.0732 13.7134C12.1046 12.565 11.9972 12.4259 12.1804 12.2533C12.2453 12.1921 12.3326 12.1566 12.4308 12.1623C16.2125 12.3899 19.4652 10.7275 21.6126 7.94393C22.1917 8.96065 23.0408 9.27719 23.6704 9.35995C23.8278 9.38062 23.9465 9.51492 23.9465 9.67249C23.9465 11.1315 23.9465 12.3568 23.9465 13.8054C23.9465 19.0532 17.664 21.6457 13.951 18.102ZM19.2458 26.3954C18.5109 27.2586 17.4823 27.2563 16.7492 26.391L15.6487 25.0922H20.3553L19.2458 26.3954ZM21.2535 24.0373H14.7551L13.8487 22.9674L15.4008 22.5826C15.6362 22.5244 15.8013 22.3079 15.8013 22.0655L15.8014 20.4338C17.2526 20.9176 18.7852 20.9123 20.1996 20.4489C20.2095 22.1346 20.1769 22.096 20.229 22.2447C20.2865 22.4091 20.4235 22.5388 20.6 22.5826L22.1623 22.9698L21.2535 24.0373Z" fill="white"/>
</svg>