<svg xmlns="http://www.w3.org/2000/svg" width="36" height="36" viewBox="0 0 36 36" fill="none">
  <g clip-path="url(#clip0_290_28820)">
    <path d="M29.4049 25.7902C29.0661 24.0927 27.8305 23.3971 27.1243 23.1335C27.1127 23.1293 27.101 23.1254 27.0891 23.1219C26.9522 23.0815 23.0958 21.944 22.6416 21.81L21.2548 20.8722V20.0061C23.4912 18.8369 25.0022 16.4959 25.0022 13.8067V13.7093C26.1502 13.4972 27.0142 12.6076 27.0142 11.5453C27.0142 10.9684 26.7592 10.4426 26.3425 10.0484V5.49902C26.3425 2.97339 24.0561 1.04107 21.5534 1.48326C18.1536 -1.065 13.2622 -0.259012 10.89 3.35695C10.7303 3.60058 10.7982 3.92754 11.0418 4.08743C11.2853 4.24718 11.6123 4.17918 11.7723 3.93569C12.9555 2.13182 14.9477 1.05499 17.1012 1.05499C18.5697 1.05499 19.9496 1.54099 21.0918 2.46032C21.2194 2.56312 21.3879 2.60074 21.5471 2.562C23.4605 2.09702 25.2877 3.55186 25.2877 5.49902V9.44981C25.1822 9.41866 25.0736 9.39314 24.9624 9.37422C24.8836 9.02653 24.6774 8.72517 24.5221 8.60388L22.3291 6.89648C21.7894 6.47636 21.0935 6.41498 20.6302 6.62557C15.317 8.67947 12.1326 8.67946 11.9745 8.70211C11.5779 8.74007 11.187 8.97414 11.0608 9.37373C10.9485 9.39271 10.8389 9.41831 10.7325 9.44974C10.7619 7.74888 10.6482 7.09961 10.8846 6.03586C10.9477 5.75151 10.7685 5.4697 10.4841 5.40656C10.1997 5.34321 9.9179 5.52257 9.85483 5.80699C9.57702 7.05707 9.71371 7.79753 9.67757 10.0482C9.26097 10.4423 9.00602 10.9681 9.00602 11.545C9.00602 12.6073 9.87009 13.4969 11.018 13.7091V13.7145C11.018 16.2909 12.4301 18.7251 14.7465 19.9753V20.8802L13.3812 21.8034C13.2734 21.8353 8.91074 23.121 8.87699 23.1334C8.1707 23.3969 6.93524 24.0925 6.59627 25.7902L5.05909 33.509C5.05719 33.5186 5.05551 33.5281 5.05417 33.5377C4.85083 34.9717 5.62026 36 7.19259 36H12.8121C13.1035 36 13.3396 35.7639 13.3396 35.4725C13.3396 35.1812 13.1035 34.945 12.8121 34.945H10.9116V29.9735C10.9116 29.6821 10.6754 29.446 10.3841 29.446C10.0927 29.446 9.85659 29.6821 9.85659 29.9735V34.945H7.19244C6.47266 34.945 6.08369 34.7032 6.0782 33.9834C6.07525 33.6246 6.05957 33.9819 7.63042 25.9967C7.8666 24.8137 8.72561 24.3196 9.22884 24.1282C9.40841 24.0753 13.1907 22.9596 13.269 22.9365L14.236 25.6465C14.4258 26.1783 14.9667 26.4302 15.4506 26.3297L17.1059 27.7818C17.6135 28.2273 18.3828 28.2311 18.895 27.784L20.5612 26.3295C21.0586 26.433 21.5912 26.1666 21.7768 25.6464L22.7427 22.9398C23.2388 23.0861 25.6872 23.8083 26.7719 24.1282C27.2751 24.3196 28.1341 24.8137 28.3703 25.9964C29.9675 34.1156 29.9369 33.6544 29.9213 34.0389C29.8961 34.674 29.5632 34.945 28.8084 34.945H26.1632V29.9735C26.1632 29.6821 25.9271 29.446 25.6357 29.446C25.3443 29.446 25.1082 29.6821 25.1082 29.9735V34.945H15.2737C14.9824 34.945 14.7463 35.1812 14.7463 35.4725C14.7463 35.7639 14.9824 36 15.2737 36H28.8085C30.1116 36 30.9657 35.283 30.9777 33.9915C30.9792 33.7866 31.0197 33.9922 29.4049 25.7902ZM25.0022 10.4634C26.2792 10.8429 26.273 12.2495 25.0022 12.6272V10.4634ZM11.0178 12.6272C9.74451 12.2487 9.74345 10.8422 11.0178 10.4634V12.6272ZM12.0728 13.7148C12.0728 13.2424 12.0728 10.2576 12.0728 9.75377C12.0798 9.7525 15.936 9.63951 21.0119 7.60917L21.0527 7.59328C21.1551 7.56002 21.4051 7.51425 21.681 7.72898L23.8434 9.41261C23.9933 9.59578 23.9473 9.47055 23.9473 13.8067C23.9473 16.1525 22.5927 18.1849 20.6082 19.1484C20.4812 19.1725 18.3847 20.2795 15.937 19.3634C13.6317 18.4852 12.0728 16.218 12.0728 13.7148ZM20.1998 20.451V21.0464L18.8545 24.2617L17.1632 24.2618C16.8336 23.4772 15.7314 20.8523 15.8012 21.0177V20.4359C17.2572 20.9289 18.8113 20.9059 20.1998 20.451ZM15.2377 25.2966C15.2229 25.2959 15.2723 25.3971 14.2335 22.5006L15.0478 21.95C15.3395 22.6474 16.0217 24.2777 16.1614 24.6116L15.2377 25.2966ZM18.2013 26.9893C18.0874 27.0888 17.9155 27.0887 17.8018 26.9888L16.3946 25.7543L16.9878 25.3166H19.0314L19.6185 25.7522L18.2013 26.9893ZM20.7824 25.2944C20.773 25.3039 20.7896 25.3019 19.8518 24.6116C20.267 23.6193 20.7407 22.4871 20.9654 21.95L21.7795 22.5006L20.7824 25.2944Z" fill="white"/>
  </g>
  <defs>
    <clipPath id="clip0_290_28820">
      <rect width="36" height="36" fill="white"/>
    </clipPath>
  </defs>
</svg>