<svg xmlns="http://www.w3.org/2000/svg" width="36" height="36" viewBox="0 0 36 36" fill="none">
  <g clip-path="url(#clip0_292_28885)">
    <path d="M23.7734 29.418H22.5482V28.4414C22.5482 28.1501 22.3121 27.9141 22.0208 27.9141C21.7295 27.9141 21.4935 28.1501 21.4935 28.4414V29.418H21.182C20.8908 29.418 20.6547 29.6542 20.6547 29.9454C20.6547 30.2367 20.8908 30.4727 21.182 30.4727H23.7734C24.0647 30.4727 24.3008 30.2367 24.3008 29.9454C24.3008 29.6542 24.0647 29.418 23.7734 29.418Z" fill="white"/>
    <path d="M30.9438 33.5385C30.9424 33.5287 30.9407 33.5191 30.9388 33.5095L29.9801 28.6942C29.9232 28.4084 29.6454 28.2232 29.3598 28.28C29.0742 28.3369 28.8888 28.6145 28.9456 28.9002L29.9013 33.7001C29.9286 33.9031 29.959 34.3715 29.7177 34.6493C29.5471 34.8457 29.2404 34.9453 28.8058 34.9453H26.1612V29.9747C26.1612 29.6834 25.9251 29.4474 25.6338 29.4474C25.3425 29.4474 25.1065 29.6834 25.1065 29.9747V34.9453H20.663L19.4827 26.3517L19.8591 25.4813C19.8691 25.481 19.8792 25.4807 19.8892 25.4798C19.8953 25.4792 19.9015 25.4782 19.9076 25.4775C19.9178 25.4762 19.9281 25.4748 19.9382 25.4729C19.9448 25.4716 19.9514 25.4701 19.958 25.4686C19.9676 25.4664 19.9771 25.4642 19.9866 25.4614C19.9933 25.4595 20 25.4573 20.0066 25.4552C20.0158 25.4521 20.0249 25.4489 20.0339 25.4454C20.0405 25.4428 20.0471 25.4401 20.0535 25.4372C20.0625 25.4333 20.0712 25.4291 20.0799 25.4246C20.0862 25.4215 20.0925 25.4183 20.0987 25.4149C20.1075 25.4099 20.1162 25.4045 20.1248 25.399C20.1305 25.3954 20.1362 25.392 20.1418 25.3881C20.1511 25.3816 20.1601 25.3746 20.169 25.3675C20.1735 25.3639 20.1781 25.3606 20.1826 25.3569C20.1957 25.3457 20.2085 25.3339 20.2208 25.3213L22.5697 22.8916L26.3926 24.0192C26.3936 24.0196 26.3946 24.0199 26.3957 24.0202L26.7699 24.1306C27.273 24.3219 28.1318 24.816 28.3679 25.9985L28.4557 26.4391C28.5126 26.7248 28.7902 26.9105 29.0758 26.8533C29.3615 26.7964 29.5469 26.5188 29.49 26.2331L29.4022 25.7922C29.0635 24.095 27.8281 23.3996 27.122 23.1362C27.1104 23.1319 27.0987 23.128 27.0868 23.1245L26.6912 23.0078C26.69 23.0074 26.6888 23.0071 26.6875 23.0067L22.6401 21.8128L21.2536 20.8752V20.0023C23.4896 18.8333 25.0002 16.4928 25.0002 13.8041V13.7067C26.148 13.4947 27.0119 12.6052 27.0119 11.5431C27.0119 11.2309 26.9369 10.9338 26.8024 10.6643C26.8033 10.6511 26.8044 10.6379 26.8044 10.6245V7.68473C26.9537 7.32417 27.0292 6.94294 27.0292 6.55038C27.0292 5.12859 26.0018 3.90741 24.6358 3.63495C24.4714 2.14995 23.2089 0.991055 21.6809 0.991055C21.2888 0.991055 20.9005 1.06896 20.5406 1.21845C19.9848 0.459141 19.0943 0 18.1405 0C18.1304 0 18.1204 0.000210937 18.1112 0.000632813C18.1009 0.000210937 18.0906 0 18.0802 0C17.1263 0 16.2359 0.45907 15.68 1.21845C15.3201 1.06896 14.9318 0.991055 14.5396 0.991055C13.0121 0.991055 11.7499 2.14917 11.5848 3.63502C10.2186 3.90755 9.19125 5.12859 9.19125 6.55038C9.19125 6.94252 9.2667 7.3234 9.41611 7.68466V10.3411C9.15771 10.6874 9.00689 11.1 9.00689 11.543C9.00689 12.6051 9.87082 13.4946 11.0185 13.7066V13.7121C11.0185 15.6489 11.822 17.5264 13.2228 18.8634C13.6873 19.3068 14.1998 19.6767 14.7464 19.9717V20.8879L13.3933 21.803L9.31184 23.0069C9.31078 23.0072 9.3098 23.0075 9.30867 23.0078L8.91309 23.1245C8.90128 23.128 8.88961 23.1319 8.87808 23.1362C8.17186 23.3996 6.93661 24.095 6.59763 25.7925L5.06117 33.5095C5.05927 33.5191 5.05758 33.5287 5.05624 33.5385C4.99676 33.9583 4.97349 34.7506 5.48585 35.3408C5.86568 35.7782 6.44049 36.0001 7.19417 36.0001H15.8079H20.203H28.8058C29.5595 36.0001 30.1342 35.7783 30.5141 35.3408C31.0265 34.7506 31.0032 33.9583 30.9438 33.5385ZM21.5966 22.3803L19.7838 24.2554L18.8421 23.5568L19.5413 22.9286L20.7722 21.8228L21.5966 22.3803ZM18.9373 24.9551L18.5851 25.7695H17.4147L17.0626 24.9551L18 24.2608L18.9373 24.9551ZM16.0245 21.1037L15.8013 20.9031V20.4378C16.1925 20.5686 16.5938 20.6624 17.0022 20.7214C17.0137 20.723 17.0253 20.7246 17.0369 20.7262C17.1242 20.7384 17.2118 20.7489 17.2998 20.7577C17.3249 20.7603 17.3499 20.763 17.3751 20.7653C17.4523 20.7723 17.53 20.7776 17.6077 20.782C17.6374 20.7837 17.6669 20.7861 17.6967 20.7874C17.7979 20.7918 17.8996 20.7946 18.0016 20.7947C18.0021 20.7947 18.0026 20.7947 18.0031 20.7947C18.0055 20.7947 18.0078 20.7949 18.0102 20.7949C18.06 20.7949 18.1102 20.7924 18.1602 20.7913C18.2038 20.7903 18.2474 20.7901 18.2909 20.7883C18.3074 20.7877 18.3239 20.788 18.3404 20.7872C18.988 20.757 19.6111 20.6397 20.199 20.447V20.92L18.0095 22.8871L16.0245 21.1037ZM25.0002 12.6247V10.4613C25.5591 10.6274 25.9572 11.0495 25.9572 11.5429C25.9571 12.0363 25.5591 12.4586 25.0002 12.6247ZM11.0185 12.6247C10.4597 12.4586 10.0616 12.0363 10.0616 11.5429C10.0616 11.0496 10.4596 10.6274 11.0185 10.4613V12.6247ZM11.0186 9.28842V9.37955C10.8272 9.41491 10.6439 9.4692 10.471 9.53993V7.60542C10.471 7.51015 10.4511 7.41769 10.4124 7.33162C10.3021 7.08469 10.2462 6.82186 10.2462 6.55045C10.2461 5.56003 11.0183 4.72071 12.0045 4.63936C12.3565 4.61004 12.6218 4.32014 12.6214 3.96401C12.6214 2.9063 13.482 2.04574 14.5397 2.04574C14.8708 2.04574 15.1973 2.1318 15.4839 2.29444C15.6412 2.3838 15.8239 2.40616 15.9979 2.35779C16.172 2.30927 16.3166 2.19551 16.4052 2.03745C16.7446 1.43121 17.3865 1.05462 18.0771 1.05469C18.0881 1.05504 18.0989 1.05497 18.1104 1.05539C18.1215 1.05553 18.133 1.05504 18.1406 1.05462C18.8344 1.05462 19.4762 1.43114 19.8157 2.03752C19.9041 2.19544 20.0486 2.30913 20.2227 2.35772C20.3967 2.40623 20.5792 2.3838 20.7367 2.29451C21.0233 2.1318 21.3499 2.04574 21.681 2.04574C22.7387 2.04574 23.5993 2.90651 23.5993 3.96499C23.5989 4.32014 23.8642 4.61011 24.2167 4.6395C25.2024 4.72078 25.9746 5.56017 25.9746 6.55038C25.9746 6.82172 25.9186 7.08469 25.8081 7.33184C25.7693 7.41874 25.7497 7.51078 25.7497 7.60528V9.63239C25.5042 9.50745 25.2329 9.41745 24.9442 9.36998C24.8795 9.16938 24.7695 9.03045 24.6716 8.94038C24.3744 8.667 23.9951 8.64872 23.847 8.65244C23.8371 8.65244 23.8277 8.65259 23.8181 8.65301C23.5586 8.66552 23.2958 8.64914 23.037 8.60527C22.2183 8.46647 21.508 8.07384 21.0881 7.52787C21.0834 7.52168 21.0785 7.51563 21.0735 7.50966C21.0689 7.50424 21.0644 7.49911 21.0598 7.49398C20.7776 7.15071 20.4664 7.05748 20.2536 7.04011C19.8582 7.00755 19.5614 7.20773 19.455 7.29316C19.4425 7.30266 19.4303 7.31271 19.4186 7.3234C18.87 7.82205 18.1623 8.19183 17.372 8.3925C15.9806 8.74596 14.5452 8.49649 13.7154 7.7568C13.7146 7.7561 13.7139 7.75547 13.7131 7.75484C13.5052 7.56112 13.1209 7.39385 12.6745 7.52632C12.6655 7.52899 12.6565 7.53188 12.6477 7.53504C12.4076 7.62061 12.2131 7.69416 12.0359 7.76651C11.418 8.01872 11.0186 8.61602 11.0186 9.28842ZM13.9509 18.1003C12.7577 16.9614 12.0733 15.3619 12.0733 13.7121V13.2275V9.85852V9.28828C12.0733 9.04655 12.215 8.83252 12.4345 8.74294C12.5923 8.67853 12.7671 8.6123 12.9836 8.53502C12.9928 8.5332 12.999 8.53369 13.0062 8.53805C13.0148 8.54606 13.0237 8.55373 13.0328 8.56104C14.1346 9.52896 15.8938 9.85606 17.6317 9.41477C18.5803 9.17374 19.4368 8.72627 20.11 8.12018C20.1151 8.11589 20.1203 8.11153 20.1253 8.10696C20.1255 8.10682 20.1587 8.09184 20.1639 8.09065C20.1642 8.09079 20.1957 8.10239 20.2482 8.16778C20.2541 8.17516 20.2601 8.18213 20.266 8.18894C20.8472 8.93377 21.7915 9.46399 22.8608 9.64519C23.1679 9.69722 23.48 9.71873 23.7894 9.70959C23.8194 9.71135 23.85 9.71058 23.8811 9.70685C23.9008 9.70685 23.9258 9.71023 23.9442 9.71487C23.9449 9.72225 23.9454 9.73153 23.9454 9.74306V9.85859V13.2276V13.8041C23.9454 16.1606 22.5785 18.201 20.5789 19.1587C20.5466 19.1666 20.5147 19.1768 20.4839 19.1911C19.8489 19.4855 19.1791 19.6625 18.4871 19.7196C18.4751 19.7206 18.4631 19.7213 18.4511 19.7222C18.3756 19.7279 18.2999 19.7321 18.2239 19.735C18.1489 19.7378 18.0738 19.7401 17.9992 19.74C17.9869 19.74 17.9747 19.7395 17.9625 19.7395C17.876 19.7388 17.7897 19.7365 17.7038 19.7321C17.6974 19.7317 17.6909 19.7317 17.6845 19.7313C16.2928 19.6548 14.9844 19.0868 13.9509 18.1003ZM15.2466 21.8228L17.1769 23.5568L16.2349 24.2554L14.4221 22.3803L15.2466 21.8228ZM16.4127 34.9452L16.6225 33.4175C16.6622 33.1289 16.4603 32.8629 16.1718 32.8232C15.8837 32.784 15.6173 32.9854 15.5776 33.2739L15.3481 34.9452H10.9125V29.9746C10.9125 29.6833 10.6765 29.4472 10.3852 29.4472C10.0939 29.4472 9.85781 29.6833 9.85781 29.9746V34.9452H7.19431C6.75977 34.9452 6.45293 34.8456 6.28235 34.6492C6.04111 34.3713 6.07149 33.903 6.09877 33.7001L7.63214 25.9986C7.86832 24.8159 8.72726 24.3218 9.23034 24.1305L9.60427 24.0202C9.60539 24.0199 9.60645 24.0195 9.60757 24.0192L13.4451 22.8872L15.7982 25.3212C15.8105 25.3339 15.8232 25.3456 15.8364 25.3568C15.8408 25.3606 15.8456 25.3639 15.8501 25.3676C15.859 25.3746 15.8679 25.3816 15.8771 25.388C15.8828 25.392 15.8886 25.3954 15.8944 25.3991C15.9029 25.4045 15.9114 25.4099 15.9202 25.4147C15.9264 25.4183 15.9328 25.4214 15.9392 25.4246C15.9478 25.429 15.9564 25.4332 15.9652 25.4371C15.9718 25.44 15.9786 25.4428 15.9853 25.4454C15.9941 25.4488 16.003 25.452 16.012 25.455C16.0188 25.4573 16.0256 25.4595 16.0325 25.4614C16.0417 25.464 16.051 25.4663 16.0603 25.4684C16.0671 25.4699 16.0739 25.4715 16.0808 25.4728C16.0906 25.4746 16.1005 25.4759 16.1104 25.4772C16.1168 25.478 16.1233 25.4791 16.1298 25.4796C16.1334 25.48 16.137 25.4802 16.1406 25.4804L16.5256 26.3707L15.9155 30.8128C15.8759 31.1014 16.0777 31.3675 16.3662 31.4071C16.654 31.4461 16.9208 31.2449 16.9605 30.9564L17.5279 26.8241H18.4826L19.5981 34.9452H16.4127V34.9452Z" fill="white"/>
  </g>
  <defs>
    <clipPath id="clip0_292_28885">
      <rect width="36" height="36" fill="white"/>
    </clipPath>
  </defs>
</svg>