<svg xmlns="http://www.w3.org/2000/svg" width="14" height="16" viewBox="0 0 14 16" fill="none">
<path d="M7 2C5.34315 2 4 3.34315 4 5C4 6.65685 5.34315 8 7 8C8.65685 8 10 6.65685 10 5C10 3.34315 8.65685 2 7 2ZM2.5 5C2.5 2.51472 4.51472 0.5 7 0.5C9.48528 0.5 11.5 2.51472 11.5 5C11.5 7.48528 9.48528 9.5 7 9.5C4.51472 9.5 2.5 7.48528 2.5 5ZM4 12.5C2.75736 12.5 1.75 13.5074 1.75 14.75C1.75 15.1642 1.41421 15.5 1 15.5C0.585786 15.5 0.25 15.1642 0.25 14.75C0.25 12.6789 1.92893 11 4 11H10C12.0711 11 13.75 12.6789 13.75 14.75C13.75 15.1642 13.4142 15.5 13 15.5C12.5858 15.5 12.25 15.1642 12.25 14.75C12.25 13.5074 11.2426 12.5 10 12.5H4Z" fill="white" class="white-fill-svg"/>
</svg>