<svg xmlns="http://www.w3.org/2000/svg" width="20" height="20" viewBox="0 0 20 20" fill="none">
  <path d="M10.2441 4.41075C10.5695 4.08531 11.0971 4.08531 11.4226 4.41075L16.4226 9.41075C16.5788 9.56703 16.6666 9.77899 16.6666 10C16.6666 10.221 16.5788 10.433 16.4226 10.5893L11.4226 15.5893C11.0971 15.9147 10.5695 15.9147 10.2441 15.5893C9.91862 15.2638 9.91862 14.7362 10.2441 14.4108L13.8215 10.8333L4.16665 10.8333C3.70641 10.8333 3.33331 10.4602 3.33331 10C3.33331 9.53977 3.70641 9.16667 4.16665 9.16667L13.8215 9.16667L10.2441 5.58926C9.91862 5.26382 9.91862 4.73619 10.2441 4.41075Z" fill="#0D0D0D"/>
</svg>