<svg xmlns="http://www.w3.org/2000/svg" width="36" height="36" viewBox="0 0 36 36" fill="none">
  <g clip-path="url(#clip0_292_28920)">
    <path d="M11.3182 23.5459C11.3177 23.546 11.317 23.5463 11.3159 23.5465C11.3169 23.5463 11.3177 23.546 11.3182 23.5459Z" fill="white"/>
    <path d="M30.944 33.5384C30.9406 33.514 30.9062 33.3442 30.9076 33.3514C30.684 32.2282 29.6262 26.916 29.4024 25.792C28.8829 23.1899 26.3274 22.9587 26.1632 22.8758C26.6939 22.6417 27.0943 22.3983 27.3723 22.229C28.1592 21.7496 27.962 20.5527 27.0636 20.3442C26.6094 20.2388 26.195 20.0583 25.8266 19.8059C26.5796 19.7454 27.3317 19.4846 28.0272 19.0394C28.7716 18.563 28.5719 17.4483 27.7337 17.2312C26.7907 16.9867 26.6284 15.8401 26.6102 15.6794V12.7345C27.1471 12.0064 27.1462 11.0751 26.6083 10.348C26.6092 10.3352 26.6102 10.3225 26.6102 10.3094C26.5437 9.19541 26.871 7.50011 25.9058 5.24758C25.7911 4.97983 25.481 4.85566 25.2133 4.97055C24.9456 5.08523 24.8216 5.39523 24.9363 5.66298C25.7425 7.54497 25.5188 9.028 25.5555 9.54234C25.3804 9.4702 25.1945 9.41493 25.0003 9.37907V8.59719C25.0003 7.7725 24.0542 7.31019 23.4013 7.81209C22.86 8.22791 22.2169 8.56155 21.4898 8.80363C21.0209 8.96001 20.5679 8.53286 20.7007 8.05663C20.7772 7.78262 20.6789 7.49603 20.4502 7.32686C20.2214 7.15755 19.9187 7.14721 19.6792 7.30049C18.7853 7.87157 15.6212 9.68191 12.4367 9.00227C12.0493 8.91972 11.6385 9.0344 11.3462 9.33829C11.0326 9.35966 10.7347 9.43047 10.4632 9.54241C10.5314 9.12791 9.97675 5.89066 12.7436 3.19502C15.8692 0.149711 20.8528 0.396367 23.6784 3.65479C23.8693 3.8748 24.2024 3.89842 24.4224 3.70766C24.6424 3.51684 24.6661 3.18377 24.4753 2.96369C21.2663 -0.736649 15.5797 -1.04054 12.0078 2.43944C10.3317 4.07252 9.40863 6.26043 9.40863 8.60029C9.40933 9.81044 9.4075 10.3064 9.4106 10.3482C8.86033 11.092 8.87446 12.0464 9.43942 12.7763V15.679C9.4203 15.847 9.25626 16.9875 8.31604 17.2314C7.47736 17.4486 7.27879 18.5635 8.02256 19.0397C8.71816 19.4847 9.47015 19.7455 10.2231 19.8061C9.85469 20.0585 9.44027 20.2389 8.98612 20.3444C8.57472 20.4399 8.26549 20.7712 8.19834 21.1886C8.08373 21.9014 8.67991 22.2273 8.6861 22.2344C8.98457 22.4161 9.36243 22.6457 9.83543 22.8618C9.32292 23.0037 7.08494 23.3525 6.59775 25.7924C4.99251 33.8553 5.06001 33.5107 5.05607 33.5385C4.85421 34.964 5.60732 36.0001 7.19407 36.0001C8.9227 36.0001 10.8933 36.0001 12.6547 36.0001C12.9459 36.0001 13.1821 35.764 13.1821 35.4727C13.1821 35.1813 12.946 34.9453 12.6547 34.9453H10.9125V29.9746C10.9125 29.6833 10.6764 29.4472 10.3851 29.4472C10.0938 29.4472 9.85765 29.6832 9.85765 29.9746V32.9269H6.25244L7.63197 25.9986C7.86808 24.8158 8.72702 24.3217 9.23011 24.1306C10.9566 23.6472 11.2821 23.556 11.3156 23.5466C11.3147 23.5469 11.3136 23.5472 11.3124 23.5475C11.3143 23.547 11.3161 23.5465 11.3182 23.5459C11.3189 23.5457 11.3191 23.5457 11.3182 23.5459C11.744 24.8511 12.5535 26.0202 13.6367 26.8787C17.4454 29.8973 23.1307 28.2214 24.6701 23.592L26.4038 24.0225C26.4934 24.0637 28.0359 24.335 28.368 25.9984L29.7474 32.927H26.1611V29.9747C26.1611 29.6834 25.9251 29.4472 25.6337 29.4472C25.3424 29.4472 25.1063 29.6833 25.1063 29.9747C25.1063 30.7652 25.1063 33.5592 25.1063 34.9453H15.1158C14.8245 34.9453 14.5883 35.1814 14.5883 35.4727C14.5883 35.7641 14.8244 36.0002 15.1158 36.0002C15.7754 36.0002 28.1522 36.0002 28.8059 36.0002C30.3877 36 31.1467 34.9693 30.944 33.5384ZM9.83873 33.9817V34.9453H7.19407C6.47751 34.9453 6.0858 34.704 6.08067 33.9817H9.83873ZM25.0004 10.461C26.2741 10.8395 26.2732 12.2461 25.0004 12.6243V10.461ZM12.0733 10.1522C12.0733 10.0748 12.1438 10.0181 12.2168 10.0338C14.752 10.5748 17.4307 9.81086 19.6548 8.54615C19.8477 9.52089 20.8585 10.1255 21.8231 9.80432C22.619 9.53938 23.3325 9.17566 23.9455 8.72256C23.9455 9.43694 23.9455 13.0852 23.9455 13.8037C23.9455 16.0185 22.7257 18.1515 20.484 19.1907C16.4724 21.0507 12.0733 18.0007 12.0733 13.7117C12.0733 12.9645 12.0733 10.8996 12.0733 10.1522ZM20.5992 22.5809L21.9266 22.9106C20.5055 26.5338 15.3421 26.4321 14.0329 22.7946L15.4144 22.4123C15.6429 22.3491 15.8011 22.1411 15.8011 21.904V20.4375C17.1495 20.8882 18.7147 20.933 20.1989 20.4468V22.0691C20.199 22.3114 20.3641 22.5225 20.5992 22.5809ZM11.0186 10.461V12.6243C9.74514 12.2459 9.74564 10.8394 11.0186 10.461ZM11.2919 23.5532C11.2955 23.5522 11.3007 23.5508 11.3076 23.5489C11.3024 23.5503 11.2965 23.552 11.2919 23.5532ZM11.2849 23.5552C11.2846 23.5553 11.2846 23.5553 11.2849 23.5552V23.5552ZM11.2866 23.5547C11.2875 23.5544 11.2889 23.5541 11.2906 23.5536C11.289 23.5541 11.2877 23.5544 11.2866 23.5547ZM9.27693 21.3593C10.045 21.1724 10.7252 20.8153 11.2995 20.2978C11.9089 19.7485 11.4995 18.7313 10.6781 18.7627C10.0071 18.7881 9.34141 18.6046 8.69932 18.2183C10.3119 17.7141 10.4856 15.8308 10.4923 15.749C10.4951 15.7155 10.4936 15.2435 10.494 13.5551C10.6601 13.6213 10.8356 13.6726 11.0184 13.7063V13.7118C11.0184 16.2873 12.4298 18.7213 14.7463 19.9714V21.5028C13.8688 21.7456 12.6247 22.09 11.665 22.3555C10.8326 22.1622 10.3006 21.9821 9.27693 21.3593ZM18.0015 27.3432C15.4016 27.3432 13.1394 25.69 12.3346 23.2645L13.0137 23.0766C13.3357 24.0156 13.9233 24.8559 14.704 25.4818C17.5446 27.7591 21.7293 26.5173 22.9564 23.1664L23.6431 23.3369C22.8127 25.7233 20.5536 27.3432 18.0015 27.3432ZM24.2015 22.3886C23.9355 22.3225 21.5198 21.7227 21.2538 21.6566V20.002C23.4897 18.8329 25.0004 16.4924 25.0004 13.8036V13.7062C25.1945 13.6704 25.3804 13.6151 25.5555 13.5429C25.556 15.2801 25.5546 15.7144 25.5573 15.7489C25.5641 15.8308 25.738 17.714 27.3503 18.2183C26.7082 18.6046 26.0423 18.7876 25.3716 18.7627C24.5445 18.7346 24.1437 19.7511 24.7501 20.2978C25.3242 20.8151 26.0039 21.172 26.7727 21.3593C26.2917 21.6514 25.4437 22.1482 24.2015 22.3886ZM26.1613 34.9453V33.9817H29.9193C29.9098 35.2996 28.8095 34.8674 26.1613 34.9453Z" fill="white"/>
  </g>
  <defs>
    <clipPath id="clip0_292_28920">
      <rect width="36" height="36" fill="white"/>
    </clipPath>
  </defs>
</svg>