<svg xmlns="http://www.w3.org/2000/svg" width="17" height="17" viewBox="0 0 17 17" fill="none">
  <path d="M8.49996 2.83464C5.37035 2.83464 2.83329 5.37169 2.83329 8.5013C2.83329 11.6309 5.37035 14.168 8.49996 14.168C11.6296 14.168 14.1666 11.6309 14.1666 8.5013C14.1666 5.37169 11.6296 2.83464 8.49996 2.83464ZM1.41663 8.5013C1.41663 4.58928 4.58794 1.41797 8.49996 1.41797C12.412 1.41797 15.5833 4.58928 15.5833 8.5013C15.5833 12.4133 12.412 15.5846 8.49996 15.5846C4.58794 15.5846 1.41663 12.4133 1.41663 8.5013ZM8.49996 4.2513C8.89116 4.2513 9.20829 4.56843 9.20829 4.95964V8.2079L11.1258 10.1254C11.4024 10.4021 11.4024 10.8505 11.1258 11.1272C10.8492 11.4038 10.4007 11.4038 10.1241 11.1272L7.99909 9.00217C7.86625 8.86933 7.79163 8.68916 7.79163 8.5013V4.95964C7.79163 4.56843 8.10876 4.2513 8.49996 4.2513Z" fill="url(#paint0_linear_3083_37856)"/>
  <defs>
    <linearGradient id="paint0_linear_3083_37856" x1="5.26186" y1="-1.21298" x2="10.5238" y2="17.8108" gradientUnits="userSpaceOnUse">
      <stop stop-color="#D82DF4"/>
      <stop offset="1" stop-color="#6D2DF4"/>
    </linearGradient>
  </defs>
</svg>