<svg xmlns="http://www.w3.org/2000/svg" width="14" height="15" viewBox="0 0 14 15" fill="none">
  <path d="M6.99996 2.83335C4.42263 2.83335 2.33329 4.92269 2.33329 7.50002C2.33329 10.0773 4.42263 12.1667 6.99996 12.1667C9.57729 12.1667 11.6666 10.0773 11.6666 7.50002C11.6666 4.92269 9.57729 2.83335 6.99996 2.83335ZM1.16663 7.50002C1.16663 4.27836 3.7783 1.66669 6.99996 1.66669C10.2216 1.66669 12.8333 4.27836 12.8333 7.50002C12.8333 10.7217 10.2216 13.3334 6.99996 13.3334C3.7783 13.3334 1.16663 10.7217 1.16663 7.50002ZM6.99996 4.00002C7.32213 4.00002 7.58329 4.26119 7.58329 4.58335V7.2584L9.16244 8.83754C9.39024 9.06535 9.39024 9.43469 9.16244 9.6625C8.93463 9.89031 8.56529 9.89031 8.33748 9.6625L6.58748 7.9125C6.47808 7.8031 6.41663 7.65473 6.41663 7.50002V4.58335C6.41663 4.26119 6.67779 4.00002 6.99996 4.00002Z" fill="#50F835"/>
</svg>