<svg xmlns="http://www.w3.org/2000/svg" width="41" height="40" viewBox="0 0 41 40" fill="none">
  <circle cx="20.2508" cy="19.8049" r="7.80488" fill="#9E9E9E"/>
  <path d="M17.6775 16.5246C17.4823 16.3294 17.1657 16.3294 16.9704 16.5246C16.7752 16.7199 16.7752 17.0365 16.9704 17.2317L17.6775 16.5246ZM22.8241 23.0854C23.0193 23.2806 23.3359 23.2806 23.5312 23.0854C23.7264 22.8901 23.7264 22.5735 23.5312 22.3783L22.8241 23.0854ZM23.5312 17.2317C23.7264 17.0365 23.7264 16.7199 23.5312 16.5246C23.3359 16.3294 23.0193 16.3294 22.8241 16.5246L23.5312 17.2317ZM16.9704 22.3783C16.7752 22.5735 16.7752 22.8901 16.9704 23.0854C17.1657 23.2806 17.4823 23.2806 17.6775 23.0854L16.9704 22.3783ZM16.9704 17.2317L22.8241 23.0854L23.5312 22.3783L17.6775 16.5246L16.9704 17.2317ZM22.8241 16.5246L16.9704 22.3783L17.6775 23.0854L23.5312 17.2317L22.8241 16.5246Z" fill="white" fill-opacity="0.7"/>
  <path d="M17.6775 16.5246C17.4823 16.3294 17.1657 16.3294 16.9704 16.5246C16.7752 16.7199 16.7752 17.0365 16.9704 17.2317L17.6775 16.5246ZM22.8241 23.0854C23.0193 23.2806 23.3359 23.2806 23.5312 23.0854C23.7264 22.8901 23.7264 22.5735 23.5312 22.3783L22.8241 23.0854ZM23.5312 17.2317C23.7264 17.0365 23.7264 16.7199 23.5312 16.5246C23.3359 16.3294 23.0193 16.3294 22.8241 16.5246L23.5312 17.2317ZM16.9704 22.3783C16.7752 22.5735 16.7752 22.8901 16.9704 23.0854C17.1657 23.2806 17.4823 23.2806 17.6775 23.0854L16.9704 22.3783ZM16.9704 17.2317L22.8241 23.0854L23.5312 22.3783L17.6775 16.5246L16.9704 17.2317ZM22.8241 16.5246L16.9704 22.3783L17.6775 23.0854L23.5312 17.2317L22.8241 16.5246Z" fill="#343434"/>
</svg>