<svg xmlns="http://www.w3.org/2000/svg" width="14" height="14" viewBox="0 0 14 14" fill="none">
  <path d="M3.66659 1.66671C3.66659 0.930328 4.26354 0.333374 4.99992 0.333374H8.99992C9.7363 0.333374 10.3333 0.930328 10.3333 1.66671V3.00004H11.6597C11.6638 3 11.668 3 11.6721 3.00004H12.9999C13.3681 3.00004 13.6666 3.29852 13.6666 3.66671C13.6666 4.0349 13.3681 4.33337 12.9999 4.33337H12.2873L11.7091 12.4284C11.6593 13.1261 11.0787 13.6667 10.3792 13.6667H3.62066C2.92115 13.6667 2.34056 13.1261 2.29072 12.4284L1.71251 4.33337H0.999919C0.631729 4.33337 0.333252 4.0349 0.333252 3.66671C0.333252 3.29852 0.631729 3.00004 0.999919 3.00004H2.32775C2.33188 3 2.33601 3 2.34013 3.00004H3.66659V1.66671ZM4.99992 3.00004H8.99992V1.66671H4.99992V3.00004ZM3.04924 4.33337L3.62066 12.3334H10.3792L10.9506 4.33337H3.04924ZM5.66658 5.66671C6.03477 5.66671 6.33325 5.96518 6.33325 6.33337V10.3334C6.33325 10.7016 6.03477 11 5.66658 11C5.2984 11 4.99992 10.7016 4.99992 10.3334V6.33337C4.99992 5.96518 5.2984 5.66671 5.66658 5.66671ZM8.33325 5.66671C8.70144 5.66671 8.99992 5.96518 8.99992 6.33337V10.3334C8.99992 10.7016 8.70144 11 8.33325 11C7.96506 11 7.66658 10.7016 7.66658 10.3334V6.33337C7.66658 5.96518 7.96506 5.66671 8.33325 5.66671Z" fill="#F14040"/>
</svg>