<svg xmlns="http://www.w3.org/2000/svg" width="18" height="16" viewBox="0 0 18 16" fill="none">
  <path d="M4.83366 2C4.83366 1.17157 5.57985 0.5 6.50033 0.5H11.5003C12.4208 0.5 13.167 1.17157 13.167 2V3.5H14.8251C14.8302 3.49996 14.8354 3.49996 14.8405 3.5H16.5003C16.9606 3.5 17.3337 3.83579 17.3337 4.25C17.3337 4.66421 16.9606 5 16.5003 5H15.6096L14.8868 14.1069C14.8245 14.8918 14.0988 15.5 13.2244 15.5H4.77626C3.90186 15.5 3.17613 14.8918 3.11383 14.1069L2.39106 5H1.50033C1.04009 5 0.666992 4.66421 0.666992 4.25C0.666992 3.83579 1.04009 3.5 1.50033 3.5H3.16011C3.16528 3.49996 3.17044 3.49996 3.17559 3.5H4.83366V2ZM6.50033 3.5H11.5003V2H6.50033V3.5ZM4.06197 5L4.77626 14H13.2244L13.9387 5H4.06197ZM7.33366 6.5C7.7939 6.5 8.16699 6.83579 8.16699 7.25V11.75C8.16699 12.1642 7.7939 12.5 7.33366 12.5C6.87342 12.5 6.50033 12.1642 6.50033 11.75V7.25C6.50033 6.83579 6.87342 6.5 7.33366 6.5ZM10.667 6.5C11.1272 6.5 11.5003 6.83579 11.5003 7.25V11.75C11.5003 12.1642 11.1272 12.5 10.667 12.5C10.2068 12.5 9.83366 12.1642 9.83366 11.75V7.25C9.83366 6.83579 10.2068 6.5 10.667 6.5Z" fill="white" class="white-fill-svg"/>
</svg>