<svg width="20" height="20" viewBox="0 0 20 20" fill="none" xmlns="http://www.w3.org/2000/svg">
<path d="M14.1667 11.6667V1.66667" stroke="white" stroke-width="1.5" stroke-linecap="round" stroke-linejoin="round"/>
<path d="M7.50002 15.1L8.33335 11.6667H3.47502C3.21627 11.6667 2.96109 11.6064 2.72966 11.4907C2.49823 11.375 2.29693 11.207 2.14168 11C1.98644 10.793 1.88152 10.5527 1.83523 10.2981C1.78895 10.0436 1.80257 9.78173 1.87502 9.53334L3.81668 2.86667C3.91766 2.52048 4.12819 2.21638 4.41668 2.00001C4.70518 1.78363 5.05607 1.66667 5.41668 1.66667H16.6667C17.1087 1.66667 17.5326 1.84227 17.8452 2.15483C18.1578 2.46739 18.3334 2.89131 18.3334 3.33334V10C18.3334 10.442 18.1578 10.866 17.8452 11.1785C17.5326 11.4911 17.1087 11.6667 16.6667 11.6667H14.3667C14.0566 11.6668 13.7527 11.7535 13.4892 11.9169C13.2257 12.0803 13.013 12.314 12.875 12.5917L10 18.3333C9.60704 18.3285 9.22024 18.2349 8.86851 18.0595C8.51679 17.8842 8.20924 17.6316 7.96885 17.3207C7.72845 17.0098 7.56142 16.6485 7.48024 16.264C7.39905 15.8795 7.40581 15.4816 7.50002 15.1Z" stroke="white" stroke-width="1.5" stroke-linecap="round" stroke-linejoin="round"/>
</svg>
