<svg xmlns="http://www.w3.org/2000/svg" width="22" height="22" viewBox="0 0 22 22" fill="none">
<path d="M14.4991 7.9375H16.2491C16.2491 5.45513 13.8385 4.32288 11.8741 4.06213V2.25H10.1241V4.06213C8.15977 4.32288 5.74915 5.45513 5.74915 7.9375C5.74915 10.3053 8.08189 11.5364 10.1241 11.8138V16.1625C8.85715 15.9429 7.49915 15.2665 7.49915 14.0625H5.74915C5.74915 16.3279 7.87102 17.6666 10.1241 17.944V19.75H11.8741V17.9388C13.8385 17.678 16.2491 16.5449 16.2491 14.0625C16.2491 11.5801 13.8385 10.4479 11.8741 10.1871V5.8375C13.0379 6.04662 14.4991 6.66087 14.4991 7.9375ZM7.49915 7.9375C7.49915 6.66087 8.9604 6.04662 10.1241 5.8375V10.0366C8.92452 9.81525 7.49915 9.15987 7.49915 7.9375ZM14.4991 14.0625C14.4991 15.3391 13.0379 15.9534 11.8741 16.1625V11.9625C13.0379 12.1716 14.4991 12.7859 14.4991 14.0625Z" fill="url(#paint0_linear_2063_7375)"/>
<defs>
<linearGradient id="paint0_linear_2063_7375" x1="8.59915" y1="-1" x2="18.2173" y2="19.864" gradientUnits="userSpaceOnUse">
<stop stop-color="#2DF47D"/>
<stop offset="1" stop-color="#2DF4DC"/>
</linearGradient>
</defs>
</svg>