<svg xmlns="http://www.w3.org/2000/svg" width="18" height="18" viewBox="0 0 18 18" fill="none">
  <g opacity="0.4">
    <path d="M12.2197 1.7197C12.5126 1.42681 12.9874 1.42681 13.2803 1.7197L16.2803 4.7197C16.5732 5.01259 16.5732 5.48747 16.2803 5.78036L6.53033 15.5304C6.38968 15.671 6.19891 15.75 6 15.75H3C2.58579 15.75 2.25 15.4142 2.25 15V12C2.25 11.8011 2.32902 11.6104 2.46967 11.4697L9.96951 3.96986L12.2197 1.7197ZM10.5 5.56069L3.75 12.3107V14.25H5.68934L12.4393 7.50003L10.5 5.56069ZM13.5 6.43937L14.6893 5.25003L12.75 3.31069L11.5607 4.50003L13.5 6.43937Z" fill="white" class="white-fill-svg"/>
  </g>
</svg>