<svg xmlns="http://www.w3.org/2000/svg" width="20" height="20" viewBox="0 0 20 20" fill="none">
  <path d="M13.5774 1.91107C13.9028 1.58563 14.4305 1.58563 14.7559 1.91107L18.0893 5.2444C18.4147 5.56984 18.4147 6.09748 18.0893 6.42291L7.25592 17.2562C7.09964 17.4125 6.88768 17.5003 6.66667 17.5003H3.33333C2.8731 17.5003 2.5 17.1272 2.5 16.667V13.3337C2.5 13.1126 2.5878 12.9007 2.74408 12.7444L11.0772 4.41124L13.5774 1.91107ZM11.6667 6.17884L4.16667 13.6788V15.8337H6.32149L13.8215 8.33366L11.6667 6.17884ZM15 7.15515L16.3215 5.83366L14.1667 3.67884L12.8452 5.00033L15 7.15515Z" fill="white" class="white-fill-svg"/>
</svg>