<svg xmlns="http://www.w3.org/2000/svg" width="19" height="19" viewBox="0 0 19 19" fill="none">
  <path d="M1.58325 5.54297C1.58325 5.98019 1.93769 6.33464 2.37492 6.33464C2.81214 6.33464 3.16659 5.9802 3.16659 5.54297L3.16659 4.28756L6.56513 7.6861C6.87429 7.99526 7.37555 7.99526 7.68471 7.6861C7.99388 7.37693 7.99388 6.87567 7.68471 6.56651L4.28617 3.16797L5.54159 3.16797C5.97882 3.16797 6.33326 2.81353 6.33326 2.3763C6.33326 1.93908 5.97881 1.58464 5.54159 1.58464L2.37492 1.58464C1.93769 1.58464 1.58325 1.93908 1.58325 2.37631L1.58325 5.54297ZM14.7137 15.8346L13.4582 15.8346C13.021 15.8346 12.6666 16.1891 12.6666 16.6263C12.6666 17.0635 13.021 17.418 13.4582 17.418L16.6249 17.418C17.0621 17.418 17.4166 17.0635 17.4166 16.6263L17.4166 13.4596C17.4166 13.0224 17.0621 12.668 16.6249 12.668C16.1877 12.668 15.8333 13.0224 15.8333 13.4596L15.8333 14.7151L12.4347 11.3165C12.1255 11.0073 11.6243 11.0073 11.3151 11.3165C11.006 11.6257 11.006 12.1269 11.3151 12.4361L14.7137 15.8346Z" fill="white"/>
</svg>