<svg xmlns="http://www.w3.org/2000/svg" width="18" height="18" viewBox="0 0 18 18" fill="none">
<path d="M11.25 9C11.25 10.2426 10.2426 11.25 9 11.25C7.75736 11.25 6.75 10.2426 6.75 9C6.75 7.75736 7.75736 6.75 9 6.75C10.2426 6.75 11.25 7.75736 11.25 9Z" fill="white"/>
<path d="M16.4208 8.66459C14.8022 5.42726 11.9273 3.75 9 3.75C6.07265 3.75 3.19784 5.42726 1.57918 8.66459C1.47361 8.87573 1.47361 9.12426 1.57918 9.33541C3.19784 12.5727 6.07265 14.25 9 14.25C11.9273 14.25 14.8022 12.5727 16.4208 9.33541C16.5264 9.12426 16.5264 8.87573 16.4208 8.66459ZM9 12.75C6.77341 12.75 4.49854 11.5344 3.09724 9C4.49854 6.46558 6.77341 5.25 9 5.25C11.2266 5.25 13.5015 6.46558 14.9028 9C13.5015 11.5344 11.2266 12.75 9 12.75Z" fill="white"/>
</svg>