<svg xmlns="http://www.w3.org/2000/svg" width="20" height="20" viewBox="0 0 20 20" fill="none">
  <path d="M3.33325 3.33268C3.33325 2.41221 4.07944 1.66602 4.99992 1.66602H11.6666C11.8876 1.66602 12.0996 1.75381 12.2558 1.91009L16.4225 6.07676C16.5788 6.23304 16.6666 6.445 16.6666 6.66602V16.666C16.6666 17.5865 15.9204 18.3327 14.9999 18.3327H4.99992C4.07944 18.3327 3.33325 17.5865 3.33325 16.666V3.33268ZM14.6547 6.66602L11.6666 3.67786V6.66602H14.6547ZM9.99992 3.33268L4.99992 3.33268V16.666H14.9999V8.33268H10.8333C10.373 8.33268 9.99992 7.95959 9.99992 7.49935V3.33268ZM13.0892 10.2434C13.4146 10.5689 13.4146 11.0965 13.0892 11.4219L9.75584 14.7553C9.4304 15.0807 8.90277 15.0807 8.57733 14.7553L6.91066 13.0886C6.58523 12.7632 6.58523 12.2355 6.91066 11.9101C7.2361 11.5847 7.76374 11.5847 8.08917 11.9101L9.16658 12.9875L11.9107 10.2434C12.2361 9.91799 12.7637 9.91799 13.0892 10.2434Z" fill="white"/>
</svg>