<svg xmlns="http://www.w3.org/2000/svg" width="20" height="20" viewBox="0 0 20 20" fill="none">
  <path d="M3.33325 3.33268C3.33325 2.41221 4.07944 1.66602 4.99992 1.66602H11.6666C11.8876 1.66602 12.0996 1.75381 12.2558 1.91009L16.4225 6.07676C16.5788 6.23304 16.6666 6.445 16.6666 6.66602V16.666C16.6666 17.5865 15.9204 18.3327 14.9999 18.3327H4.99992C4.07944 18.3327 3.33325 17.5865 3.33325 16.666V3.33268ZM14.6547 6.66602L11.6666 3.67786V6.66602H14.6547ZM9.99992 3.33268L4.99992 3.33268V16.666H14.9999V8.33268H10.8333C10.373 8.33268 9.99992 7.95959 9.99992 7.49935V3.33268ZM6.66659 10.8327C6.66659 10.3724 7.03968 9.99935 7.49992 9.99935H12.4999C12.9602 9.99935 13.3333 10.3724 13.3333 10.8327C13.3333 11.2929 12.9602 11.666 12.4999 11.666H7.49992C7.03968 11.666 6.66659 11.2929 6.66659 10.8327ZM6.66659 14.166C6.66659 13.7058 7.03968 13.3327 7.49992 13.3327H12.4999C12.9602 13.3327 13.3333 13.7058 13.3333 14.166C13.3333 14.6263 12.9602 14.9993 12.4999 14.9993H7.49992C7.03968 14.9993 6.66659 14.6263 6.66659 14.166Z" fill="white"/>
</svg>