<svg xmlns="http://www.w3.org/2000/svg" width="18" height="18" viewBox="0 0 18 18" fill="none">
<g opacity="0.4">
<path d="M3 5.25C3 4.83579 3.33579 4.5 3.75 4.5H14.25C14.6642 4.5 15 4.83579 15 5.25C15 5.66421 14.6642 6 14.25 6H3.75C3.33579 6 3 5.66421 3 5.25ZM4.5 9C4.5 8.58579 4.83579 8.25 5.25 8.25H12.75C13.1642 8.25 13.5 8.58579 13.5 9C13.5 9.41421 13.1642 9.75 12.75 9.75H5.25C4.83579 9.75 4.5 9.41421 4.5 9ZM6 12.75C6 12.3358 6.33579 12 6.75 12H11.25C11.6642 12 12 12.3358 12 12.75C12 13.1642 11.6642 13.5 11.25 13.5H6.75C6.33579 13.5 6 13.1642 6 12.75Z" fill="white" class="white-fill-svg"/>
</g>
</svg>