<svg xmlns="http://www.w3.org/2000/svg" width="49" height="19" viewBox="0 0 49 19" fill="none">
  <g clip-path="url(#clip0_2891_34750)">
    <path d="M23.1755 9.28134V14.8509H21.366V1.09663H26.1652C26.738 1.08494 27.3076 1.18415 27.8409 1.38852C28.3743 1.59289 28.861 1.89837 29.2728 2.28735C29.6888 2.65271 30.0199 3.10079 30.2438 3.60146C30.4677 4.10214 30.5793 4.64381 30.571 5.19008C30.5829 5.73927 30.473 6.28449 30.249 6.78835C30.0249 7.29222 29.6919 7.74282 29.2728 8.10928C28.4336 8.89066 27.3977 9.28098 26.1652 9.28025H23.1755V9.28134ZM23.1755 2.78998V7.59128H26.2101C26.5428 7.60091 26.8739 7.54264 27.1822 7.42018C27.4905 7.29773 27.7692 7.11379 28.0005 6.88014C28.2307 6.66168 28.4136 6.40038 28.5385 6.1117C28.6634 5.82301 28.7278 5.5128 28.7278 5.19941C28.7278 4.88602 28.6634 4.57581 28.5385 4.28712C28.4136 3.99844 28.2307 3.73714 28.0005 3.51868C27.7721 3.2801 27.4943 3.09166 27.1857 2.96584C26.877 2.84003 26.5445 2.77971 26.2101 2.78888H23.1755V2.78998Z" fill="#5F6368"/>
    <path d="M34.7406 5.13477C36.0781 5.13477 37.1338 5.48375 37.9079 6.18172C38.6819 6.8797 39.0685 7.83667 39.0678 9.05263V14.8526H37.3369V13.5467H37.2582C36.5089 14.6221 35.5124 15.1599 34.2686 15.1599C33.2068 15.1599 32.3185 14.8526 31.6037 14.238C31.2607 13.956 30.9864 13.6027 30.8009 13.204C30.6154 12.8053 30.5234 12.3712 30.5315 11.9334C30.5315 10.9596 30.9084 10.1852 31.6622 9.61013C32.416 9.03507 33.4222 8.74681 34.6811 8.74535C35.7555 8.74535 36.6404 8.9374 37.3358 9.3215V8.91765C37.3378 8.61916 37.2718 8.32397 37.1425 8.05348C37.0133 7.78299 36.824 7.54399 36.5884 7.35379C36.1098 6.93224 35.4862 6.70223 34.8418 6.70959C33.831 6.70959 33.0311 7.12589 32.4422 7.95848L30.8484 6.97847C31.7251 5.74933 33.0225 5.13477 34.7406 5.13477ZM32.3995 11.9718C32.3983 12.1967 32.4521 12.4186 32.5565 12.619C32.6609 12.8195 32.8128 12.9926 32.9996 13.1241C33.3999 13.4315 33.8966 13.5944 34.4057 13.5851C35.1693 13.5838 35.9012 13.287 36.4411 12.7598C37.0406 12.2089 37.3403 11.5625 37.3403 10.8206C36.7761 10.3816 35.9893 10.1621 34.98 10.1621C34.245 10.1621 33.632 10.3352 33.1413 10.6812C32.6456 11.0324 32.3995 11.4593 32.3995 11.9718Z" fill="#5F6368"/>
    <path d="M49.0034 5.43945L42.9611 18.9983H41.0932L43.3354 14.2541L39.3623 5.43945H41.3292L44.2008 12.1997H44.2402L47.0331 5.43945H49.0034Z" fill="#5F6368"/>
    <path d="M15.8631 8.08322C15.8638 7.54476 15.8172 7.00724 15.7238 6.47656H8.09229V9.51977H12.4633C12.3738 10.0058 12.1845 10.4691 11.9067 10.8818C11.629 11.2945 11.2685 11.648 10.847 11.921V13.8964H13.4557C14.9831 12.5213 15.8631 10.4877 15.8631 8.08322Z" fill="#4285F4"/>
    <path d="M8.09231 15.8034C10.2761 15.8034 12.1149 15.1032 13.4557 13.896L10.8471 11.9206C10.121 12.4013 9.18589 12.6757 8.09231 12.6757C5.98156 12.6757 4.19002 11.2863 3.54938 9.41406H0.862061V11.4498C1.5356 12.7585 2.56839 13.8586 3.84513 14.6274C5.12188 15.3962 6.59232 15.8033 8.09231 15.8034Z" fill="#34A853"/>
    <path d="M3.54949 9.41382C3.21081 8.43275 3.21081 7.37033 3.54949 6.38927V4.35352H0.862174C0.295574 5.45442 0.000488281 6.66944 0.000488281 7.90154C0.000488281 9.13364 0.295574 10.3487 0.862174 11.4496L3.54949 9.41382Z" fill="#FBBC04"/>
    <path d="M8.09231 3.12823C9.24634 3.10982 10.3615 3.53557 11.1966 4.31346L13.5063 2.05822C12.0417 0.715036 10.1015 -0.0223951 8.09231 0.000518417C6.59232 0.000585169 5.12188 0.407729 3.84513 1.1765C2.56839 1.94526 1.5356 3.04539 0.862061 4.35407L3.54938 6.38982C4.19002 4.51759 5.98156 3.12823 8.09231 3.12823Z" fill="#EA4335"/>
  </g>
  <defs>
    <clipPath id="clip0_2891_34750">
      <rect width="49" height="19" fill="white"/>
    </clipPath>
  </defs>
</svg>