<svg width="12" height="12" viewBox="0 0 12 12" fill="none" xmlns="http://www.w3.org/2000/svg">
<path d="M5.99999 1.33333C3.42266 1.33333 1.33332 3.42267 1.33332 6C1.33332 8.57733 3.42266 10.6667 5.99999 10.6667C8.57732 10.6667 10.6667 8.57733 10.6667 6C10.6667 3.42267 8.57732 1.33333 5.99999 1.33333ZM0.166656 6C0.166656 2.77834 2.77833 0.166668 5.99999 0.166668C9.22165 0.166668 11.8333 2.77834 11.8333 6C11.8333 9.22166 9.22165 11.8333 5.99999 11.8333C2.77833 11.8333 0.166656 9.22166 0.166656 6ZM5.99999 2.5C6.32216 2.5 6.58332 2.76117 6.58332 3.08333V5.75838L8.16247 7.33752C8.39027 7.56533 8.39027 7.93467 8.16247 8.16248C7.93466 8.39029 7.56532 8.39029 7.33751 8.16248L5.58751 6.41248C5.47811 6.30308 5.41666 6.15471 5.41666 6V3.08333C5.41666 2.76117 5.67782 2.5 5.99999 2.5Z" fill="#3E46FB"/>
</svg>
