<svg xmlns="http://www.w3.org/2000/svg" width="21" height="21" viewBox="0 0 21 21" fill="none">
  <path d="M9.91869 1.97102C10.2502 1.67633 10.7498 1.67633 11.0813 1.97102L18.9563 8.97102C19.3175 9.29207 19.35 9.84513 19.029 10.2063C18.7079 10.5675 18.1549 10.6 17.7937 10.279L17.5 10.0179V16.625C17.5 17.5915 16.7165 18.375 15.75 18.375H5.25001C4.28351 18.375 3.50001 17.5915 3.50001 16.625V10.0179L3.20633 10.279C2.84514 10.6 2.29208 10.5675 1.97103 10.2063C1.64997 9.84513 1.68251 9.29207 2.04369 8.97102L9.91869 1.97102ZM5.25001 8.46238V16.625H7.87501V12.25C7.87501 11.7668 8.26676 11.375 8.75001 11.375H12.25C12.7333 11.375 13.125 11.7668 13.125 12.25V16.625H15.75V8.46238L10.5 3.79571L5.25001 8.46238ZM11.375 16.625V13.125H9.62501V16.625H11.375Z" fill="url(#paint0_linear_3260_45179)"/>
  <defs>
    <linearGradient id="paint0_linear_3260_45179" x1="6.5" y1="-1.3375" x2="12.4072" y2="21.1433" gradientUnits="userSpaceOnUse">
      <stop stop-color="#D82DF4"/>
      <stop offset="1" stop-color="#6D2DF4"/>
    </linearGradient>
  </defs>
</svg>