<svg xmlns="http://www.w3.org/2000/svg" width="18" height="18" viewBox="0 0 18 18" fill="none">
<path d="M8.50173 1.68944C8.7859 1.43685 9.21412 1.43685 9.49828 1.68944L16.2483 7.68944C16.5579 7.96463 16.5858 8.43869 16.3106 8.74827C16.0354 9.05786 15.5613 9.08575 15.2517 8.81056L15 8.5868V14.25C15 15.0784 14.3284 15.75 13.5 15.75H4.50001C3.67158 15.75 3.00001 15.0784 3.00001 14.25L3.00001 8.5868L2.74828 8.81056C2.43869 9.08575 1.96464 9.05786 1.68945 8.74827C1.41426 8.43869 1.44215 7.96463 1.75174 7.68944L8.50173 1.68944ZM4.50001 7.25347V14.25H6.75001V10.5C6.75001 10.0858 7.08579 9.75 7.50001 9.75H10.5C10.9142 9.75 11.25 10.0858 11.25 10.5V14.25H13.5V7.25347L9.00001 3.25347L4.50001 7.25347ZM9.75001 14.25V11.25H8.25001V14.25H9.75001Z" fill="#2C2C2C"/>
</svg>