<svg xmlns="http://www.w3.org/2000/svg" width="18" height="18" viewBox="0 0 18 18" fill="none">
  <path d="M9 3C5.68629 3 3 5.68629 3 9C3 12.3137 5.68629 15 9 15C12.3137 15 15 12.3137 15 9C15 5.68629 12.3137 3 9 3ZM1.5 9C1.5 4.85786 4.85786 1.5 9 1.5C13.1421 1.5 16.5 4.85786 16.5 9C16.5 13.1421 13.1421 16.5 9 16.5C4.85786 16.5 1.5 13.1421 1.5 9Z" fill="white" fill-opacity="0.4"/>
  <path d="M9 7.5C9.41421 7.5 9.75 7.83579 9.75 8.25V12.75C9.75 13.1642 9.41421 13.5 9 13.5C8.58579 13.5 8.25 13.1642 8.25 12.75V8.25C8.25 7.83579 8.58579 7.5 9 7.5Z" fill="white" fill-opacity="0.4"/>
  <path d="M10.125 5.625C10.125 6.24632 9.62132 6.75 9 6.75C8.37868 6.75 7.875 6.24632 7.875 5.625C7.875 5.00368 8.37868 4.5 9 4.5C9.62132 4.5 10.125 5.00368 10.125 5.625Z" fill="white" fill-opacity="0.4"/>
</svg>