<svg xmlns="http://www.w3.org/2000/svg" width="19" height="20" viewBox="0 0 19 20" fill="none">
<path d="M12.5 4.9L11.6667 8.33333H16.525C16.7838 8.33333 17.0389 8.39358 17.2704 8.50929C17.5018 8.625 17.7031 8.79301 17.8584 9C18.0136 9.207 18.1185 9.44729 18.1648 9.70186C18.2111 9.95643 18.1975 10.2183 18.125 10.4667L16.1834 17.1333C16.0824 17.4795 15.8718 17.7836 15.5834 18C15.2949 18.2164 14.944 18.3333 14.5834 18.3333H3.33335C2.89133 18.3333 2.4674 18.1577 2.15484 17.8452C1.84228 17.5326 1.66669 17.1087 1.66669 16.6667V10C1.66669 9.55797 1.84228 9.13405 2.15484 8.82149C2.4674 8.50893 2.89133 8.33333 3.33335 8.33333H5.63335C5.94342 8.33317 6.2473 8.24651 6.51082 8.0831C6.77433 7.91969 6.98704 7.68601 7.12502 7.40834L10 1.66667C10.393 1.67153 10.7798 1.76514 11.1315 1.9405C11.4832 2.11585 11.7908 2.36842 12.0312 2.67934C12.2716 2.99025 12.4386 3.35147 12.5198 3.736C12.601 4.12054 12.5942 4.51845 12.5 4.9Z" stroke="white" stroke-width="1.5" stroke-linecap="round" stroke-linejoin="round"/>
</svg>