<svg xmlns="http://www.w3.org/2000/svg" width="18" height="18" viewBox="0 0 18 18" fill="none">
  <path d="M6 6C4.31421 6 3 7.31421 3 9C3 10.6858 4.31421 12 6 12H7.5C7.91421 12 8.25 12.3358 8.25 12.75C8.25 13.1642 7.91421 13.5 7.5 13.5H6C3.48579 13.5 1.5 11.5142 1.5 9C1.5 6.48579 3.48579 4.5 6 4.5H7.5C7.91421 4.5 8.25 4.83579 8.25 5.25C8.25 5.66421 7.91421 6 7.5 6H6ZM9.75 5.25C9.75 4.83579 10.0858 4.5 10.5 4.5H12C14.5142 4.5 16.5 6.48579 16.5 9C16.5 11.5142 14.5142 13.5 12 13.5H10.5C10.0858 13.5 9.75 13.1642 9.75 12.75C9.75 12.3358 10.0858 12 10.5 12H12C13.6858 12 15 10.6858 15 9C15 7.31421 13.6858 6 12 6H10.5C10.0858 6 9.75 5.66421 9.75 5.25ZM5.25 9C5.25 8.58579 5.58579 8.25 6 8.25H12C12.4142 8.25 12.75 8.58579 12.75 9C12.75 9.41421 12.4142 9.75 12 9.75H6C5.58579 9.75 5.25 9.41421 5.25 9Z" fill="white"/>
</svg>