<svg xmlns="http://www.w3.org/2000/svg" width="21" height="21" viewBox="0 0 21 21" fill="none">
  <path d="M10.5 1.75C6.65 1.75 3.5 4.9 3.5 8.75C3.5 13.475 9.625 18.8125 9.8875 19.075C10.0625 19.1625 10.325 19.25 10.5 19.25C10.675 19.25 10.9375 19.1625 11.1125 19.075C11.375 18.8125 17.5 13.475 17.5 8.75C17.5 4.9 14.35 1.75 10.5 1.75ZM10.5 17.2375C8.6625 15.4875 5.25 11.725 5.25 8.75C5.25 5.8625 7.6125 3.5 10.5 3.5C13.3875 3.5 15.75 5.8625 15.75 8.75C15.75 11.6375 12.3375 15.4875 10.5 17.2375ZM10.5 5.25C8.575 5.25 7 6.825 7 8.75C7 10.675 8.575 12.25 10.5 12.25C12.425 12.25 14 10.675 14 8.75C14 6.825 12.425 5.25 10.5 5.25ZM10.5 10.5C9.5375 10.5 8.75 9.7125 8.75 8.75C8.75 7.7875 9.5375 7 10.5 7C11.4625 7 12.25 7.7875 12.25 8.75C12.25 9.7125 11.4625 10.5 10.5 10.5Z" fill="url(#paint0_linear_700_13879)"/>
  <defs>
    <linearGradient id="paint0_linear_700_13879" x1="7.3" y1="-1.5" x2="15.1127" y2="21.0967" gradientUnits="userSpaceOnUse">
      <stop stop-color="#2DF47D"/>
      <stop offset="1" stop-color="#2DF4DC"/>
    </linearGradient>
  </defs>
</svg>