<svg xmlns="http://www.w3.org/2000/svg" width="40" height="34" viewBox="0 0 40 34" fill="none">
  <g clip-path="url(#clip0_1054_17640)">
    <mask id="mask0_1054_17640" style="mask-type:alpha" maskUnits="userSpaceOnUse" x="-1" y="0" width="41" height="34">
      <path d="M37.0018 29.8536L18.6298 4.12431L15.7358 0.0708008H-0.0355225L2.85929 4.12431L21.2304 29.8536L24.1252 33.9062H39.8957L37.0018 29.8536ZM26.1549 29.8536L7.78464 4.12431H13.7053L32.0764 29.8536H26.1549Z" fill="black"/>
      <path d="M18.2046 33.9071H-0.0355301L2.85842 29.8536L9.08453 21.1343L11.5481 24.5834L7.78463 29.8536H15.3106L18.2046 33.9071Z" fill="black"/>
      <path d="M39.8958 0.0708008L37.0018 4.12431L30.7766 12.8437L28.3139 9.39369L32.0765 4.12431H24.5513L21.6565 0.0708008H39.8958Z" fill="black"/>
    </mask>
    <g mask="url(#mask0_1054_17640)">
      <rect width="40" height="34" fill="url(#paint0_linear_1054_17640)"/>
    </g>
  </g>
  <defs>
    <linearGradient id="paint0_linear_1054_17640" x1="9.71962" y1="-6.6729" x2="20.9418" y2="35.0537" gradientUnits="userSpaceOnUse">
      <stop stop-color="#F8F9FA"/>
      <stop offset="1" stop-color="#ADB5BD"/>
    </linearGradient>
    <clipPath id="clip0_1054_17640">
      <rect width="40" height="34" fill="white"/>
    </clipPath>
  </defs>
</svg>