<svg xmlns="http://www.w3.org/2000/svg" width="146" height="155" viewBox="0 0 146 155" fill="none">
<g clip-path="url(#clip0_56_2)">
<path d="M85.42 0V14.09L134.23 42.27V65.29H146.43V35.22L85.42 0ZM134.23 89.7V112.72L85.42 140.9V154.99L146.43 119.76V89.69H134.23V89.7ZM12.21 89.7H0V119.77L61.01 155V140.91L12.2 112.73V89.71L12.21 89.7ZM0 35.23V65.3H12.2V42.28L61.01 14.09V0L0 35.23Z" fill="url(#paint0_linear_56_2)"/>
<path d="M85.42 126.82L97.62 119.77V83.03H109.82V112.72L122.02 105.68V49.32L109.82 42.27V70.83H97.62V35.23L85.42 28.19L73.22 21.15L61.02 28.19L48.82 35.23V70.83H36.62V42.27L24.42 49.32V105.68L36.62 112.72V83.03H48.82V119.77L61.02 126.82V42.27L73.22 35.23L85.42 42.27V126.82Z" fill="url(#paint1_linear_56_2)"/>
</g>
<defs>
<linearGradient id="paint0_linear_56_2" x1="40.69" y1="8.68" x2="106.01" y2="146.88" gradientUnits="userSpaceOnUse">
<stop offset="0.19" stop-color="#F8F9FA"/>
<stop offset="0.74" stop-color="#ADB5BD"/>
</linearGradient>
<linearGradient id="paint1_linear_56_2" x1="49.34" y1="28.12" x2="94.51" y2="121.56" gradientUnits="userSpaceOnUse">
<stop offset="0.19" stop-color="#F8F9FA"/>
<stop offset="0.74" stop-color="#ADB5BD"/>
</linearGradient>
<clipPath id="clip0_56_2">
<rect width="146" height="155" fill="white"/>
</clipPath>
</defs>
</svg>