<svg xmlns="http://www.w3.org/2000/svg" width="21" height="21" viewBox="0 0 21 21" fill="none">
  <path d="M15.3142 1.8682C15.584 2.02476 15.75 2.31309 15.75 2.625V6.125C16.7867 6.125 17.719 6.57681 18.3586 7.29145C18.9123 7.91009 19.25 8.72915 19.25 9.625C19.25 10.5209 18.9123 11.3399 18.3586 11.9585C17.719 12.6732 16.7867 13.125 15.75 13.125V16.625C15.75 16.9369 15.584 17.2252 15.3142 17.3818C15.0444 17.5384 14.7117 17.5395 14.4409 17.3847L8.75 14.1328V18.375C8.75 18.8582 8.35825 19.25 7.875 19.25H4.375C3.89175 19.25 3.5 18.8582 3.5 18.375V14C2.5335 14 1.75 13.2165 1.75 12.25V7C1.75 6.0335 2.5335 5.25 3.5 5.25H8.51763L14.4409 1.86529C14.7117 1.71054 15.0444 1.71165 15.3142 1.8682ZM8.75 12.25C8.90227 12.25 9.05191 12.2897 9.18412 12.3653L14 15.1172V4.13278L9.18412 6.88471C9.05191 6.96026 8.90227 7 8.75 7H3.5V12.25H8.75ZM5.25 14V17.5H7V14H5.25ZM15.75 11.375C16.2682 11.375 16.7329 11.1509 17.0546 10.7915C17.3322 10.4813 17.5 10.0738 17.5 9.625C17.5 9.17623 17.3322 8.76874 17.0546 8.45855C16.7329 8.09913 16.2682 7.875 15.75 7.875V11.375Z" fill="url(#paint0_linear_995_77469)"/>
  <defs>
    <linearGradient id="paint0_linear_995_77469" x1="6.5" y1="-1.5" x2="13" y2="22" gradientUnits="userSpaceOnUse">
      <stop stop-color="#2DF4D0"/>
      <stop offset="1" stop-color="#5081FF"/>
    </linearGradient>
  </defs>
</svg>