<svg xmlns="http://www.w3.org/2000/svg" width="20" height="20" viewBox="0 0 20 20" fill="none">
  <path d="M3.33325 5.83333C3.33325 5.3731 3.70635 5 4.16659 5H15.8333C16.2935 5 16.6666 5.3731 16.6666 5.83333C16.6666 6.29357 16.2935 6.66667 15.8333 6.66667H4.16659C3.70635 6.66667 3.33325 6.29357 3.33325 5.83333ZM3.33325 10C3.33325 9.53976 3.70635 9.16667 4.16659 9.16667H15.8333C16.2935 9.16667 16.6666 9.53976 16.6666 10C16.6666 10.4602 16.2935 10.8333 15.8333 10.8333H4.16659C3.70635 10.8333 3.33325 10.4602 3.33325 10ZM3.33325 14.1667C3.33325 13.7064 3.70635 13.3333 4.16659 13.3333H15.8333C16.2935 13.3333 16.6666 13.7064 16.6666 14.1667C16.6666 14.6269 16.2935 15 15.8333 15H4.16659C3.70635 15 3.33325 14.6269 3.33325 14.1667Z" fill="#959595"/>
</svg>