<svg xmlns="http://www.w3.org/2000/svg" width="20" height="20" viewBox="0 0 20 20" fill="none">
<path d="M1.66666 5C1.66666 4.07953 2.41285 3.33333 3.33332 3.33333H16.6667C17.5871 3.33333 18.3333 4.07953 18.3333 5V14.1667C18.3333 15.0871 17.5871 15.8333 16.6667 15.8333H12.8452L10.5892 18.0893C10.2638 18.4147 9.73617 18.4147 9.41073 18.0893L7.15481 15.8333H3.33332C2.41285 15.8333 1.66666 15.0871 1.66666 14.1667V5ZM16.6667 5H3.33332V14.1667H7.49999C7.721 14.1667 7.93296 14.2545 8.08925 14.4107L9.99999 16.3215L11.9107 14.4107C12.067 14.2545 12.279 14.1667 12.5 14.1667H16.6667V5ZM4.99999 7.91667C4.99999 7.45643 5.37309 7.08333 5.83332 7.08333H14.1667C14.6269 7.08333 15 7.45643 15 7.91667C15 8.3769 14.6269 8.75 14.1667 8.75H5.83332C5.37309 8.75 4.99999 8.3769 4.99999 7.91667ZM4.99999 11.25C4.99999 10.7898 5.37309 10.4167 5.83332 10.4167H10.8333C11.2936 10.4167 11.6667 10.7898 11.6667 11.25C11.6667 11.7102 11.2936 12.0833 10.8333 12.0833H5.83332C5.37309 12.0833 4.99999 11.7102 4.99999 11.25Z" fill="#0D0D0D"/>
</svg>