<svg xmlns="http://www.w3.org/2000/svg" width="10" height="11" viewBox="0 0 10 11" fill="none">
<g clip-path="url(#clip0_1890_25330)">
<path d="M4.74159 0.885525C4.43456 1.18667 4.1883 1.54983 4.0175 1.95334C3.8467 2.35685 3.75486 2.79243 3.74745 3.23411C3.74005 3.67579 3.81724 4.11451 3.97441 4.52411C4.13158 4.93371 4.36551 5.30579 4.66226 5.61815C4.959 5.93051 5.31248 6.17676 5.7016 6.3422C6.09071 6.50765 6.5075 6.5889 6.9271 6.5811C7.34669 6.57331 7.7605 6.47663 8.14383 6.29684C8.52716 6.11706 8.87216 5.85784 9.15825 5.53465C9.02575 7.8307 7.21492 9.64912 5.00034 9.64912C2.69867 9.64912 0.833252 7.68552 0.833252 5.26316C0.833252 2.93202 2.56075 1.02588 4.74159 0.885525Z" fill="#171725"/>
</g>
<defs>
<clipPath id="clip0_1890_25330">
<rect width="10" height="10.5263" fill="white"/>
</clipPath>
</defs>
</svg>