<svg xmlns="http://www.w3.org/2000/svg" width="20" height="20" viewBox="0 0 20 20" fill="none">
<path d="M1.66666 5.00001C1.66666 4.07954 2.41286 3.33334 3.33333 3.33334H7.5C7.72101 3.33334 7.93297 3.42114 8.08925 3.57742L9.51184 5.00001H16.6667C17.5871 5.00001 18.3333 5.7462 18.3333 6.66668V15C18.3333 15.9205 17.5871 16.6667 16.6667 16.6667H3.33333C2.41286 16.6667 1.66666 15.9205 1.66666 15V5.00001ZM7.15482 5.00001L3.33333 5.00001V15H16.6667V6.66668H9.16666C8.94565 6.66668 8.73369 6.57888 8.57741 6.4226L7.15482 5.00001ZM13.0893 8.57742C13.4147 8.90286 13.4147 9.4305 13.0893 9.75593L9.75592 13.0893C9.59964 13.2455 9.38768 13.3333 9.16666 13.3333C8.94565 13.3333 8.73369 13.2455 8.57741 13.0893L6.91074 11.4226C6.58531 11.0972 6.58531 10.5695 6.91074 10.2441C7.23618 9.91865 7.76382 9.91865 8.08925 10.2441L9.16666 11.3215L11.9107 8.57742C12.2362 8.25199 12.7638 8.25199 13.0893 8.57742Z" fill="#0D0D0D"/>
</svg>