<svg xmlns="http://www.w3.org/2000/svg" width="894" height="769" viewBox="0 0 894 769" fill="none">
<rect width="894" height="769" rx="13" fill="black"/>
<rect x="0.5" y="0.5" width="893" height="768" rx="12.5" stroke="white" stroke-opacity="0.3"/>
<path opacity="0.5" d="M357.018 434V411.6H360.25V420.88H370.458V411.6H373.69V434H370.458V423.936H360.25V434H357.018ZM386.394 434.384C384.869 434.384 383.551 434.021 382.442 433.296C381.343 432.571 380.495 431.563 379.898 430.272C379.311 428.981 379.018 427.493 379.018 425.808C379.018 424.016 379.322 422.485 379.93 421.216C380.549 419.936 381.407 418.96 382.506 418.288C383.615 417.605 384.911 417.264 386.394 417.264C387.653 417.264 388.799 417.541 389.834 418.096C390.879 418.64 391.711 419.488 392.33 420.64C392.959 421.781 393.274 423.248 393.274 425.04C393.274 425.296 393.263 425.605 393.242 425.968C393.231 426.32 393.205 426.683 393.162 427.056H382.234C382.319 427.963 382.538 428.763 382.89 429.456C383.253 430.139 383.733 430.672 384.33 431.056C384.927 431.44 385.631 431.632 386.442 431.632C387.157 431.632 387.807 431.509 388.394 431.264C388.981 431.008 389.53 430.613 390.042 430.08L391.898 432.08C391.258 432.752 390.474 433.307 389.546 433.744C388.618 434.171 387.567 434.384 386.394 434.384ZM382.218 424.4H390.106C390.085 423.536 389.925 422.779 389.626 422.128C389.338 421.467 388.917 420.949 388.362 420.576C387.818 420.203 387.151 420.016 386.362 420.016C385.263 420.016 384.319 420.368 383.53 421.072C382.741 421.776 382.303 422.885 382.218 424.4ZM406.5 434.288L402.116 425.68C401.956 425.349 401.801 425.029 401.652 424.72C401.513 424.4 401.369 424.064 401.22 423.712C401.252 423.968 401.279 424.267 401.3 424.608C401.321 424.939 401.332 425.28 401.332 425.632V434H398.18V417.648H401.076L405.828 427.04C405.988 427.371 406.121 427.648 406.228 427.872C406.335 428.085 406.425 428.283 406.5 428.464C406.575 428.283 406.66 428.085 406.756 427.872C406.863 427.648 407.001 427.371 407.172 427.04L411.924 417.648H414.82V434H411.668V425.904C411.668 425.552 411.679 425.195 411.7 424.832C411.721 424.459 411.743 424.144 411.764 423.888C411.625 424.24 411.481 424.576 411.332 424.896C411.183 425.216 411.017 425.541 410.836 425.872L406.5 434.288ZM425.494 434.384C423.713 434.384 422.31 433.899 421.286 432.928C420.273 431.947 419.766 430.613 419.766 428.928C419.766 427.84 420.022 426.891 420.534 426.08C421.046 425.269 421.766 424.645 422.694 424.208C423.633 423.76 424.731 423.536 425.99 423.536C426.758 423.536 427.483 423.616 428.166 423.776C428.859 423.936 429.494 424.176 430.07 424.496V423.392C430.07 422.24 429.793 421.392 429.238 420.848C428.683 420.293 427.835 420.016 426.694 420.016C425.905 420.016 425.089 420.16 424.246 420.448C423.414 420.736 422.609 421.141 421.83 421.664L420.902 419.056C421.766 418.491 422.737 418.053 423.814 417.744C424.902 417.424 425.985 417.264 427.062 417.264C429.089 417.264 430.603 417.765 431.606 418.768C432.619 419.771 433.126 421.269 433.126 423.264V434H430.07V432.56C429.462 433.147 428.763 433.6 427.974 433.92C427.185 434.229 426.358 434.384 425.494 434.384ZM426.07 431.632C426.795 431.632 427.505 431.467 428.198 431.136C428.902 430.795 429.526 430.32 430.07 429.712V427.184C429.558 426.885 428.977 426.651 428.326 426.48C427.675 426.309 427.051 426.224 426.454 426.224C425.323 426.224 424.433 426.469 423.782 426.96C423.131 427.44 422.806 428.101 422.806 428.944C422.806 429.776 423.094 430.432 423.67 430.912C424.246 431.392 425.046 431.632 426.07 431.632ZM444.727 434.384C442.583 434.384 440.881 433.632 439.623 432.128C438.375 430.624 437.751 428.528 437.751 425.84C437.751 423.163 438.38 421.067 439.639 419.552C440.908 418.027 442.641 417.264 444.839 417.264C446.289 417.264 447.537 417.595 448.583 418.256C449.628 418.917 450.385 419.909 450.855 421.232L447.927 422.288C447.703 421.669 447.34 421.141 446.839 420.704C446.337 420.267 445.692 420.048 444.903 420.048C444.049 420.048 443.329 420.277 442.743 420.736C442.167 421.195 441.724 421.856 441.415 422.72C441.116 423.584 440.967 424.624 440.967 425.84C440.967 427.077 441.116 428.123 441.415 428.976C441.724 429.829 442.161 430.475 442.727 430.912C443.303 431.339 443.991 431.552 444.791 431.552C445.601 431.552 446.289 431.339 446.855 430.912C447.431 430.475 447.836 429.888 448.071 429.152L450.951 430.096C450.535 431.472 449.783 432.533 448.695 433.28C447.617 434.016 446.295 434.384 444.727 434.384ZM439.223 427.136V424.48H446.823V427.136H439.223ZM480.036 434.384C479.118 434.384 478.34 434.192 477.7 433.808C477.07 433.424 476.537 432.949 476.1 432.384V428.96C476.43 429.696 476.916 430.283 477.556 430.72C478.206 431.157 478.884 431.376 479.588 431.376C480.718 431.376 481.593 430.869 482.212 429.856C482.83 428.832 483.14 427.483 483.14 425.808C483.14 424.016 482.841 422.64 482.244 421.68C481.646 420.72 480.761 420.24 479.588 420.24C479.012 420.24 478.494 420.357 478.036 420.592C477.588 420.816 477.198 421.099 476.868 421.44C476.537 421.781 476.281 422.117 476.1 422.448V419.168C476.505 418.635 477.038 418.187 477.7 417.824C478.361 417.451 479.145 417.264 480.052 417.264C481.972 417.264 483.502 418.011 484.644 419.504C485.785 420.997 486.356 423.099 486.356 425.808C486.356 427.568 486.1 429.093 485.588 430.384C485.076 431.664 484.345 432.651 483.396 433.344C482.446 434.037 481.326 434.384 480.036 434.384ZM469.46 434.384C468.158 434.384 467.033 434.043 466.084 433.36C465.145 432.677 464.42 431.696 463.908 430.416C463.406 429.125 463.156 427.589 463.156 425.808C463.156 424.027 463.417 422.501 463.94 421.232C464.473 419.952 465.209 418.971 466.148 418.288C467.097 417.605 468.206 417.264 469.476 417.264C470.382 417.264 471.161 417.451 471.812 417.824C472.462 418.197 472.996 418.635 473.412 419.136V422.416C473.241 422.107 472.99 421.787 472.66 421.456C472.34 421.115 471.95 420.827 471.492 420.592C471.033 420.357 470.51 420.24 469.924 420.24C468.772 420.24 467.892 420.72 467.284 421.68C466.676 422.64 466.372 424.016 466.372 425.808C466.372 427.483 466.676 428.832 467.284 429.856C467.902 430.869 468.782 431.376 469.924 431.376C470.628 431.376 471.294 431.163 471.924 430.736C472.564 430.299 473.06 429.691 473.412 428.912V432.352C473.006 432.939 472.478 433.424 471.828 433.808C471.177 434.192 470.388 434.384 469.46 434.384ZM473.156 440.432V412.72L476.356 411.216V438.928L473.156 440.432ZM497.842 434.384C495.58 434.384 493.799 433.621 492.498 432.096C491.196 430.56 490.546 428.475 490.546 425.84C490.546 424.08 490.839 422.56 491.426 421.28C492.023 420 492.866 419.013 493.954 418.32C495.052 417.616 496.348 417.264 497.842 417.264C499.346 417.264 500.642 417.611 501.73 418.304C502.828 418.987 503.671 419.968 504.258 421.248C504.844 422.528 505.138 424.048 505.138 425.808C505.138 427.579 504.839 429.104 504.242 430.384C503.655 431.664 502.818 432.651 501.73 433.344C500.642 434.037 499.346 434.384 497.842 434.384ZM497.842 431.376C499.122 431.376 500.119 430.885 500.834 429.904C501.559 428.923 501.922 427.557 501.922 425.808C501.922 424.059 501.559 422.693 500.834 421.712C500.119 420.731 499.122 420.24 497.842 420.24C496.562 420.24 495.559 420.731 494.834 421.712C494.119 422.693 493.762 424.069 493.762 425.84C493.762 427.579 494.119 428.939 494.834 429.92C495.559 430.891 496.562 431.376 497.842 431.376ZM513.328 434V420.432H508.464V417.648H521.36V420.432H516.512V434H513.328ZM531.997 434.384C529.735 434.384 527.954 433.621 526.653 432.096C525.351 430.56 524.701 428.475 524.701 425.84C524.701 424.08 524.994 422.56 525.581 421.28C526.178 420 527.021 419.013 528.109 418.32C529.207 417.616 530.503 417.264 531.997 417.264C533.501 417.264 534.797 417.611 535.885 418.304C536.983 418.987 537.826 419.968 538.413 421.248C538.999 422.528 539.293 424.048 539.293 425.808C539.293 427.579 538.994 429.104 538.397 430.384C537.81 431.664 536.973 432.651 535.885 433.344C534.797 434.037 533.501 434.384 531.997 434.384ZM531.997 431.376C533.277 431.376 534.274 430.885 534.989 429.904C535.714 428.923 536.077 427.557 536.077 425.808C536.077 424.059 535.714 422.693 534.989 421.712C534.274 420.731 533.277 420.24 531.997 420.24C530.717 420.24 529.714 420.731 528.989 421.712C528.274 422.693 527.917 424.069 527.917 425.84C527.917 427.579 528.274 428.939 528.989 429.92C529.714 430.891 530.717 431.376 531.997 431.376Z" fill="white"/>
<g opacity="0.5">
<path d="M447 336.667C433.009 336.667 421.667 348.009 421.667 362C421.667 375.991 433.009 387.333 447 387.333C460.991 387.333 472.333 375.991 472.333 362C472.333 348.009 460.991 336.667 447 336.667ZM415.333 362C415.333 344.511 429.511 330.333 447 330.333C464.489 330.333 478.667 344.511 478.667 362C478.667 379.489 464.489 393.667 447 393.667C429.511 393.667 415.333 379.489 415.333 362ZM433.678 348.678C434.914 347.441 436.919 347.441 438.156 348.678L447 357.522L455.844 348.678C457.081 347.441 459.086 347.441 460.323 348.678C461.559 349.914 461.559 351.919 460.323 353.156L451.479 362L460.323 370.844C461.559 372.081 461.559 374.086 460.323 375.323C459.086 376.559 457.081 376.559 455.844 375.323L447 366.478L438.156 375.323C436.919 376.559 434.914 376.559 433.678 375.323C432.441 374.086 432.441 372.081 433.678 370.844L442.522 362L433.678 353.156C432.441 351.919 432.441 349.914 433.678 348.678Z" fill="white"/>
</g>
</svg>