<svg xmlns="http://www.w3.org/2000/svg" width="18" height="18" viewBox="0 0 18 18" fill="none">
  <path d="M13.1264 1.60132C13.3577 1.73551 13.5 1.98265 13.5 2.25V5.25C14.3886 5.25 15.1877 5.63726 15.7359 6.24981C16.2105 6.78007 16.5 7.48213 16.5 8.25C16.5 9.01787 16.2105 9.71993 15.7359 10.2502C15.1877 10.8627 14.3886 11.25 13.5 11.25V14.25C13.5 14.5174 13.3577 14.7645 13.1264 14.8987C12.8952 15.0329 12.61 15.0338 12.3779 14.9012L7.5 12.1138V15.75C7.5 16.1642 7.16421 16.5 6.75 16.5H3.75C3.33579 16.5 3 16.1642 3 15.75V12C2.17157 12 1.5 11.3284 1.5 10.5V6C1.5 5.17157 2.17157 4.5 3 4.5H7.30083L12.3779 1.59882C12.61 1.46617 12.8952 1.46713 13.1264 1.60132ZM7.5 10.5C7.63052 10.5 7.75878 10.5341 7.8721 10.5988L12 12.9576V3.54238L7.8721 5.90118C7.75878 5.96594 7.63052 6 7.5 6H3V10.5H7.5ZM4.5 12V15H6V12H4.5ZM13.5 9.75C13.9442 9.75 14.3425 9.55789 14.6182 9.24981C14.8562 8.98394 15 8.63466 15 8.25C15 7.86534 14.8562 7.51606 14.6182 7.25019C14.3425 6.94211 13.9442 6.75 13.5 6.75V9.75Z" fill="url(#paint0_linear_1014_81831)"/>
  <defs>
    <linearGradient id="paint0_linear_1014_81831" x1="5.57143" y1="-1.28571" x2="11.1429" y2="18.8571" gradientUnits="userSpaceOnUse">
      <stop stop-color="#2DF4D0"/>
      <stop offset="1" stop-color="#5081FF"/>
    </linearGradient>
  </defs>
</svg>