<svg xmlns="http://www.w3.org/2000/svg" width="18" height="18" viewBox="0 0 18 18" fill="none">
  <path d="M2.87477 3H6.24223L7.32764 5.71352L5.58398 6.87596C5.37533 7.01506 5.25 7.24924 5.25 7.5C5.25191 7.57022 5.25 7.50075 5.25 7.50075L5.25 7.50154L5.25001 7.50321L5.25003 7.507L5.25014 7.51625C5.25025 7.52316 5.25044 7.53156 5.25076 7.54139C5.25139 7.56105 5.25254 7.58647 5.25459 7.61727C5.2587 7.67884 5.26643 7.76208 5.28098 7.86388C5.31004 8.06735 5.36646 8.34608 5.47599 8.67467C5.69592 9.33445 6.12805 10.1887 6.96967 11.0303C7.81129 11.872 8.66555 12.3041 9.32533 12.524C9.65392 12.6335 9.93265 12.69 10.1361 12.719C10.2379 12.7336 10.3212 12.7413 10.3827 12.7454C10.4135 12.7475 10.4389 12.7486 10.4586 12.7492C10.4684 12.7496 10.4768 12.7498 10.4837 12.7499L10.493 12.75L10.4968 12.75L10.4985 12.75L10.4993 12.75C10.4993 12.75 10.583 12.7454 10.5 12.75C10.7841 12.75 11.0438 12.5895 11.1708 12.3354L11.6731 11.3309L15 11.8853V15.1252C13.4167 15.3542 9.14056 15.5799 5.78033 12.2197C2.42011 8.85945 2.64579 4.58332 2.87477 3ZM6.80524 7.86456L8.15969 6.9616C8.74989 6.56813 8.98379 5.81503 8.72035 5.15644L7.63494 2.44291C7.40715 1.87343 6.85558 1.5 6.24223 1.5H2.83558C2.1542 1.5 1.51282 1.97337 1.40096 2.71268C1.14648 4.39463 0.800091 9.36075 4.71967 13.2803C8.63925 17.1999 13.6054 16.8535 15.2873 16.599C16.0266 16.4872 16.5 15.8458 16.5 15.1644V11.8853C16.5 11.1521 15.9699 10.5263 15.2466 10.4058L11.9197 9.85127C11.2701 9.74301 10.6259 10.0711 10.3315 10.66L10.0716 11.1798C9.9899 11.1597 9.89872 11.134 9.79967 11.101C9.33445 10.9459 8.68871 10.628 8.03033 9.96967C7.37195 9.31129 7.05409 8.66555 6.89901 8.20033C6.85711 8.07462 6.82694 7.96159 6.80524 7.86456Z" fill="url(#paint0_linear_1014_81837)"/>
  <defs>
    <linearGradient id="paint0_linear_1014_81837" x1="3.92731" y1="-1.29393" x2="13.1981" y2="18.3906" gradientUnits="userSpaceOnUse">
      <stop stop-color="#F32D2D"/>
      <stop offset="1" stop-color="#F38C2D"/>
    </linearGradient>
  </defs>
</svg>