<svg width="20" height="20" viewBox="0 0 20 20" fill="none" xmlns="http://www.w3.org/2000/svg">
<g id="office" opacity="0.4" clip-path="url(#clip0_3589_18717)">
<path id="Vector" d="M5 18.3337V3.33366C5 2.89163 5.17559 2.46771 5.48816 2.15515C5.80072 1.84259 6.22464 1.66699 6.66667 1.66699H13.3333C13.7754 1.66699 14.1993 1.84259 14.5118 2.15515C14.8244 2.46771 15 2.89163 15 3.33366V18.3337H5Z" stroke="white" class="white-stroke-svg" stroke-width="1.6" stroke-linecap="round" stroke-linejoin="round"/>
<path id="Vector_2" d="M5 10H3.33333C2.89131 10 2.46738 10.1756 2.15482 10.4882C1.84226 10.8007 1.66667 11.2246 1.66667 11.6667V16.6667C1.66667 17.1087 1.84226 17.5326 2.15482 17.8452C2.46738 18.1577 2.89131 18.3333 3.33333 18.3333H5" stroke="white" class="white-stroke-svg" stroke-width="1.6" stroke-linecap="round" stroke-linejoin="round"/>
<path id="Vector_3" d="M15 7.5H16.6667C17.1087 7.5 17.5326 7.6756 17.8452 7.98816C18.1577 8.30072 18.3333 8.72464 18.3333 9.16667V16.6667C18.3333 17.1087 18.1577 17.5326 17.8452 17.8452C17.5326 18.1577 17.1087 18.3333 16.6667 18.3333H15" stroke="white" class="white-stroke-svg" stroke-width="1.6" stroke-linecap="round" stroke-linejoin="round"/>
<path id="Vector_4" d="M8.33333 5H11.6667" stroke="white" class="white-stroke-svg" stroke-width="1.6" stroke-linecap="round" stroke-linejoin="round"/>
<path id="Vector_5" d="M8.33333 8.33301H11.6667" stroke="white" class="white-stroke-svg" stroke-width="1.6" stroke-linecap="round" stroke-linejoin="round"/>
<path id="Vector_6" d="M8.33333 11.667H11.6667" stroke="white" class="white-stroke-svg" stroke-width="1.6" stroke-linecap="round" stroke-linejoin="round"/>
<path id="Vector_7" d="M8.33333 15H11.6667" stroke="white" class="white-stroke-svg" stroke-width="1.6" stroke-linecap="round" stroke-linejoin="round"/>
</g>
<defs>
<clipPath id="clip0_3589_18717">
<rect width="20" height="20" fill="white"/>
</clipPath>
</defs>
</svg>
