<svg xmlns="http://www.w3.org/2000/svg" width="19" height="19" viewBox="0 0 19 19" fill="none">
  <g opacity="0.4">
    <path d="M9.50002 3.16666C9.93725 3.16666 10.2917 3.5211 10.2917 3.95832V8.70833H15.0417C15.4789 8.70833 15.8334 9.06277 15.8334 9.49999C15.8334 9.93722 15.4789 10.2917 15.0417 10.2917H10.2917V15.0417C10.2917 15.4789 9.93725 15.8333 9.50002 15.8333C9.06279 15.8333 8.70835 15.4789 8.70835 15.0417V10.2917H3.95835C3.52113 10.2917 3.16669 9.93722 3.16669 9.49999C3.16669 9.06277 3.52113 8.70833 3.95835 8.70833H8.70835V3.95832C8.70835 3.5211 9.06279 3.16666 9.50002 3.16666Z" fill="white" class="white-fill-svg"/>
  </g>
</svg>