 <svg
        xmlns="http://www.w3.org/2000/svg"
        width="425"
        height="128"
        viewBox="0 0 425 128"
        fill="none"
      >
        <path
          fill-rule="evenodd"
          clip-rule="evenodd"
          d="M0.980941 4.91409C0 6.83929 0 9.35953 0 14.4V113.6C0 118.64 0 121.161 0.980941 123.086C1.8438 124.779 3.22063 126.156 4.91409 127.019C6.83929 128 9.35952 128 14.4 128H410.6C415.64 128 418.161 128 420.086 127.019C421.779 126.156 423.156 124.779 424.019 123.086C425 121.161 425 118.64 425 113.6V34.8C425 30.3196 425 28.0794 424.128 26.3681C423.361 24.8628 422.137 23.6389 420.632 22.8719C418.921 22 416.68 22 412.2 22H386.031C383.239 22 381.844 22 380.708 21.6555C378.151 20.8799 376.151 18.8791 375.375 16.3223C375.031 15.1867 375.031 13.7911 375.031 11C375.031 8.20887 375.031 6.81331 374.686 5.67772C373.91 3.12091 371.91 1.12008 369.353 0.344477C368.217 0 366.822 0 364.031 0H14.4C9.35953 0 6.83929 0 4.91409 0.980941C3.22063 1.8438 1.8438 3.22063 0.980941 4.91409Z"
          fill="white"
          fill-opacity="0.05"
        />
      </svg>