<svg width="8" height="10" viewBox="0 0 8 10" fill="none" xmlns="http://www.w3.org/2000/svg">
<path d="M4 0.333333C4.32217 0.333333 4.58333 0.5945 4.58333 0.916666V9.08333C4.58333 9.4055 4.32217 9.66667 4 9.66667C3.67783 9.66667 3.41667 9.4055 3.41667 9.08333V0.916666C3.41667 0.5945 3.67783 0.333333 4 0.333333ZM6.91667 2.66667C7.23883 2.66667 7.5 2.92783 7.5 3.25V9.08333C7.5 9.4055 7.23883 9.66667 6.91667 9.66667C6.5945 9.66667 6.33333 9.4055 6.33333 9.08333V3.25C6.33333 2.92783 6.5945 2.66667 6.91667 2.66667ZM1.08333 5C1.4055 5 1.66667 5.26117 1.66667 5.58333V9.08333C1.66667 9.4055 1.4055 9.66667 1.08333 9.66667C0.761167 9.66667 0.5 9.4055 0.5 9.08333V5.58333C0.5 5.26117 0.761167 5 1.08333 5Z" fill="#3E46FB"/>
</svg>
