<svg xmlns="http://www.w3.org/2000/svg" width="20" height="20" viewBox="0 0 20 20" fill="none">
<path d="M10.6607 1.91075C10.9862 1.58531 11.5138 1.58531 11.8393 1.91075L14.3393 4.41075C14.6647 4.73619 14.6647 5.26382 14.3393 5.58926L11.8393 8.08926C11.5138 8.4147 10.9862 8.4147 10.6607 8.08926C10.3353 7.76382 10.3353 7.23619 10.6607 6.91075L11.7382 5.83334H10.4167C7.46023 5.83334 4.99999 8.29358 4.99999 11.25C4.99999 14.2064 7.46023 16.6667 10.4167 16.6667C13.3731 16.6667 15.8333 14.2064 15.8333 11.25C15.8333 10.7898 16.2064 10.4167 16.6667 10.4167C17.1269 10.4167 17.5 10.7898 17.5 11.25C17.5 15.1269 14.2936 18.3333 10.4167 18.3333C6.53976 18.3333 3.33333 15.1269 3.33333 11.25C3.33333 7.3731 6.53976 4.16667 10.4167 4.16667H11.7382L10.6607 3.08926C10.3353 2.76382 10.3353 2.23619 10.6607 1.91075Z" fill="white"/>
</svg>