<svg xmlns="http://www.w3.org/2000/svg" width="16" height="17" viewBox="0 0 16 17" fill="none">
<path d="M8 16.1149C5.76667 16.1149 3.875 15.3399 2.325 13.7899C0.775 12.2399 0 10.3482 0 8.11487C0 5.88154 0.775 3.98987 2.325 2.43987C3.875 0.889868 5.76667 0.114868 8 0.114868C9.15 0.114868 10.25 0.352368 11.3 0.827368C12.35 1.30237 13.25 1.98153 14 2.86487V0.114868H16V7.11487H9V5.11487H13.2C12.6667 4.18153 11.9375 3.4482 11.0125 2.91487C10.0875 2.38153 9.08333 2.11487 8 2.11487C6.33333 2.11487 4.91667 2.6982 3.75 3.86487C2.58333 5.03154 2 6.4482 2 8.11487C2 9.78154 2.58333 11.1982 3.75 12.3649C4.91667 13.5315 6.33333 14.1149 8 14.1149C9.28333 14.1149 10.4417 13.7482 11.475 13.0149C12.5083 12.2815 13.2333 11.3149 13.65 10.1149H15.75C15.2833 11.8815 14.3333 13.3232 12.9 14.4399C11.4667 15.5565 9.83333 16.1149 8 16.1149Z" fill="white"/>
</svg>