<svg xmlns="http://www.w3.org/2000/svg" width="20" height="20" viewBox="0 0 20 20" fill="none">
<g opacity="0.4">
<path d="M5.83341 3.33317C5.83341 2.4127 6.57961 1.6665 7.50008 1.6665H12.5001C13.4206 1.6665 14.1667 2.4127 14.1667 3.33317V4.99984H15.8248C15.83 4.99979 15.8351 4.99979 15.8403 4.99984H17.5001C17.9603 4.99984 18.3334 5.37293 18.3334 5.83317C18.3334 6.29341 17.9603 6.6665 17.5001 6.6665H16.6093L15.8866 16.7852C15.8243 17.6574 15.0985 18.3332 14.2241 18.3332H5.77601C4.90162 18.3332 4.17588 17.6574 4.11358 16.7852L3.39082 6.6665H2.50008C2.03984 6.6665 1.66675 6.29341 1.66675 5.83317C1.66675 5.37293 2.03984 4.99984 2.50008 4.99984H4.15987C4.16504 4.99979 4.1702 4.99979 4.17535 4.99984H5.83341V3.33317ZM7.50008 4.99984H12.5001V3.33317H7.50008V4.99984ZM5.06173 6.6665L5.77601 16.6665H14.2241L14.9384 6.6665H5.06173ZM8.33341 8.33317C8.79365 8.33317 9.16675 8.70627 9.16675 9.1665V14.1665C9.16675 14.6267 8.79365 14.9998 8.33341 14.9998C7.87318 14.9998 7.50008 14.6267 7.50008 14.1665V9.1665C7.50008 8.70627 7.87318 8.33317 8.33341 8.33317ZM11.6667 8.33317C12.127 8.33317 12.5001 8.70627 12.5001 9.1665V14.1665C12.5001 14.6267 12.127 14.9998 11.6667 14.9998C11.2065 14.9998 10.8334 14.6267 10.8334 14.1665V9.1665C10.8334 8.70627 11.2065 8.33317 11.6667 8.33317Z" fill="white" class="white-fill-svg"/>
</g>
</svg>