<svg xmlns="http://www.w3.org/2000/svg" width="12" height="10" viewBox="0 0 12 10" fill="none">
  <path d="M1.56522 5.01208L4.87147 1.78474L4.87147 3.11736C4.87147 3.23806 4.96326 3.33748 5.08084 3.34939C6.25799 3.58318 7.32752 3.58591 8.30076 3.28982C9.08455 3.05134 9.80096 2.62127 10.4553 1.96502C10.249 3.24099 9.71776 4.30837 8.91932 5.09919C7.98494 6.02419 6.67947 6.57498 5.09549 6.64197C4.9703 6.64685 4.87225 6.74998 4.87225 6.87419L4.87147 8.23923L1.56522 5.01208ZM4.94256 1.0658L1.0658 4.84998C0.97635 4.94197 0.978303 5.08904 1.0703 5.17869L4.93006 8.94587C4.95186 8.97071 4.97872 8.9906 5.00883 9.00421C5.03895 9.01782 5.07162 9.02483 5.10467 9.02478C5.23319 9.02478 5.33768 8.92029 5.33768 8.79158L5.33768 7.09373C6.94295 6.98064 8.27537 6.3908 9.24705 5.42869C10.2709 4.41482 10.8892 2.99197 10.9996 1.28142C11.0039 1.20857 10.9742 1.13474 10.9131 1.08552C10.8131 1.00525 10.6666 1.02107 10.5861 1.12107C9.86424 2.01951 9.06092 2.57302 8.166 2.84529C7.31561 3.10408 6.37518 3.11287 5.33768 2.92556V1.2324C5.33709 1.174 5.31522 1.11541 5.27127 1.07029C5.18162 0.978297 5.03436 0.976149 4.94256 1.0658Z" fill="white" stroke="white" stroke-width="0.2"/>
</svg>