<svg xmlns="http://www.w3.org/2000/svg" width="29" height="29" viewBox="0 0 29 29" fill="none">
  <g opacity="0.4">
    <path d="M11.0788 10.3753C11.0788 9.91507 11.4518 9.54198 11.9121 9.54198L18.9832 9.54198C19.2042 9.54198 19.4161 9.62978 19.5724 9.78606C19.7287 9.94234 19.8165 10.1543 19.8165 10.3753L19.8165 17.4464C19.8165 17.9066 19.4434 18.2797 18.9832 18.2797C18.5229 18.2797 18.1498 17.9066 18.1498 17.4464L18.1498 12.3872L11.3228 19.2141C10.9974 19.5396 10.4698 19.5396 10.1443 19.2141C9.81888 18.8887 9.81888 18.3611 10.1443 18.0356L16.9713 11.2086L11.9121 11.2086C11.4518 11.2086 11.0788 10.8355 11.0788 10.3753Z" fill="white" fill-opacity="0.6"/>
  </g>
</svg>