<svg width="12" height="12" viewBox="0 0 12 12" fill="none" xmlns="http://www.w3.org/2000/svg">
<path d="M4.83332 1.33333C2.90033 1.33333 1.33332 2.90034 1.33332 4.83333C1.33332 6.76633 2.90033 8.33333 4.83332 8.33333C6.76632 8.33333 8.33332 6.76633 8.33332 4.83333C8.33332 2.90034 6.76632 1.33333 4.83332 1.33333ZM0.166656 4.83333C0.166656 2.25601 2.25599 0.166668 4.83332 0.166668C7.41065 0.166668 9.49999 2.25601 9.49999 4.83333C9.49999 5.91175 9.13419 6.90473 8.51991 7.69496L11.6625 10.8375C11.8903 11.0653 11.8903 11.4347 11.6625 11.6625C11.4347 11.8903 11.0653 11.8903 10.8375 11.6625L7.69495 8.51992C6.90472 9.1342 5.91174 9.5 4.83332 9.5C2.25599 9.5 0.166656 7.41066 0.166656 4.83333Z" fill="#3E46FB"/>
</svg>
