<svg xmlns="http://www.w3.org/2000/svg" width="12" height="14" viewBox="0 0 12 14" fill="none">
  <g opacity="0.4">
  <path d="M3.75 1.75C3.33579 1.75 3 2.08579 3 2.5C3 2.91421 3.33579 3.25 3.75 3.25C4.16421 3.25 4.5 2.91421 4.5 2.5C4.5 2.08579 4.16421 1.75 3.75 1.75ZM1.62803 1.75C1.93691 0.876106 2.77034 0.25 3.75 0.25C4.72966 0.25 5.56309 0.876106 5.87197 1.75H11.25C11.6642 1.75 12 2.08579 12 2.5C12 2.91421 11.6642 3.25 11.25 3.25H5.87197C5.56309 4.12389 4.72966 4.75 3.75 4.75C2.77034 4.75 1.93691 4.12389 1.62803 3.25H0.75C0.335786 3.25 0 2.91421 0 2.5C0 2.08579 0.335786 1.75 0.75 1.75H1.62803ZM8.25 6.25C7.83579 6.25 7.5 6.58579 7.5 7C7.5 7.41421 7.83579 7.75 8.25 7.75C8.66421 7.75 9 7.41421 9 7C9 6.58579 8.66421 6.25 8.25 6.25ZM6.12803 6.25C6.43691 5.37611 7.27034 4.75 8.25 4.75C9.22966 4.75 10.0631 5.37611 10.372 6.25H11.25C11.6642 6.25 12 6.58579 12 7C12 7.41421 11.6642 7.75 11.25 7.75H10.372C10.0631 8.62389 9.22966 9.25 8.25 9.25C7.27034 9.25 6.43691 8.62389 6.12803 7.75H0.75C0.335786 7.75 0 7.41421 0 7C0 6.58579 0.335786 6.25 0.75 6.25H6.12803ZM3.75 10.75C3.33579 10.75 3 11.0858 3 11.5C3 11.9142 3.33579 12.25 3.75 12.25C4.16421 12.25 4.5 11.9142 4.5 11.5C4.5 11.0858 4.16421 10.75 3.75 10.75ZM1.62803 10.75C1.93691 9.87611 2.77034 9.25 3.75 9.25C4.72966 9.25 5.56309 9.87611 5.87197 10.75H11.25C11.6642 10.75 12 11.0858 12 11.5C12 11.9142 11.6642 12.25 11.25 12.25H5.87197C5.56309 13.1239 4.72966 13.75 3.75 13.75C2.77034 13.75 1.93691 13.1239 1.62803 12.25H0.75C0.335786 12.25 0 11.9142 0 11.5C0 11.0858 0.335786 10.75 0.75 10.75H1.62803Z" fill="white"/>
</g>
</svg>
