<svg width="40" height="40" viewBox="0 0 40 40" fill="none" xmlns="http://www.w3.org/2000/svg">
<circle cx="20.3335" cy="20" r="15" fill="url(#paint0_linear_1119_293)"/>
<circle cx="20.3335" cy="19" r="6" fill="white" fill-opacity="0.3"/>
<mask id="mask0_1119_293" style="mask-type:alpha" maskUnits="userSpaceOnUse" x="5" y="5" width="31" height="30">
<circle cx="20.3335" cy="20" r="15" fill="url(#paint1_linear_1119_293)"/>
</mask>
<g mask="url(#mask0_1119_293)">
<ellipse cx="20.3335" cy="35" rx="11" ry="10" fill="white" fill-opacity="0.3"/>
</g>
<g opacity="0.2">
<path d="M20.3335 5C17.2983 4.99911 14.3343 5.91901 11.8329 7.63817C9.33157 9.35733 7.41059 11.7949 6.32375 14.6288C5.23691 17.4627 5.03535 20.5596 5.74568 23.5105C6.45601 26.4614 8.04483 29.1274 10.3022 31.1562C11.2429 29.304 12.678 27.7483 14.4486 26.6617C16.2192 25.5751 18.2561 24.9999 20.3335 25C19.0974 25 17.889 24.6334 16.8612 23.9467C15.8334 23.2599 15.0323 22.2838 14.5592 21.1418C14.0862 19.9997 13.9624 18.7431 14.2036 17.5307C14.4447 16.3183 15.04 15.2047 15.9141 14.3306C16.7881 13.4565 17.9018 12.8612 19.1142 12.6201C20.3266 12.3789 21.5832 12.5027 22.7253 12.9758C23.8673 13.4488 24.8434 14.2499 25.5302 15.2777C26.2169 16.3055 26.5835 17.5139 26.5835 18.75C26.5835 20.4076 25.925 21.9973 24.7529 23.1694C23.5808 24.3415 21.9911 25 20.3335 25C22.4109 24.9999 24.4478 25.5751 26.2184 26.6617C27.989 27.7483 29.4241 29.304 30.3647 31.1562C32.6221 29.1274 34.211 26.4614 34.9213 23.5105C35.6316 20.5596 35.4301 17.4627 34.3432 14.6288C33.2564 11.7949 31.3354 9.35733 28.8341 7.63817C26.3327 5.91901 23.3687 4.99911 20.3335 5Z" fill="#4B465C"/>
<path d="M20.3335 5C17.2983 4.99911 14.3343 5.91901 11.8329 7.63817C9.33157 9.35733 7.41059 11.7949 6.32375 14.6288C5.23691 17.4627 5.03535 20.5596 5.74568 23.5105C6.45601 26.4614 8.04483 29.1274 10.3022 31.1562C11.2429 29.304 12.678 27.7483 14.4486 26.6617C16.2192 25.5751 18.2561 24.9999 20.3335 25C19.0974 25 17.889 24.6334 16.8612 23.9467C15.8334 23.2599 15.0323 22.2838 14.5592 21.1418C14.0862 19.9997 13.9624 18.7431 14.2036 17.5307C14.4447 16.3183 15.04 15.2047 15.9141 14.3306C16.7881 13.4565 17.9018 12.8612 19.1142 12.6201C20.3266 12.3789 21.5832 12.5027 22.7253 12.9758C23.8673 13.4488 24.8434 14.2499 25.5302 15.2777C26.2169 16.3055 26.5835 17.5139 26.5835 18.75C26.5835 20.4076 25.925 21.9973 24.7529 23.1694C23.5808 24.3415 21.9911 25 20.3335 25C22.4109 24.9999 24.4478 25.5751 26.2184 26.6617C27.989 27.7483 29.4241 29.304 30.3647 31.1562C32.6221 29.1274 34.211 26.4614 34.9213 23.5105C35.6316 20.5596 35.4301 17.4627 34.3432 14.6288C33.2564 11.7949 31.3354 9.35733 28.8341 7.63817C26.3327 5.91901 23.3687 4.99911 20.3335 5Z" fill="white" fill-opacity="0.2"/>
</g>
<path d="M20.3335 25C23.7853 25 26.5835 22.2018 26.5835 18.75C26.5835 15.2982 23.7853 12.5 20.3335 12.5C16.8817 12.5 14.0835 15.2982 14.0835 18.75C14.0835 22.2018 16.8817 25 20.3335 25ZM20.3335 25C18.256 25 16.219 25.5743 14.4484 26.6611C12.6778 27.7479 11.2427 29.3038 10.3022 31.1562M20.3335 25C22.411 25 24.448 25.5743 26.2186 26.6611C27.9892 27.7479 29.4243 29.3038 30.3647 31.1562M35.3335 20C35.3335 28.2843 28.6178 35 20.3335 35C12.0492 35 5.3335 28.2843 5.3335 20C5.3335 11.7157 12.0492 5 20.3335 5C28.6178 5 35.3335 11.7157 35.3335 20Z" stroke="white" stroke-linecap="round" stroke-linejoin="round"/>
<defs>
<linearGradient id="paint0_linear_1119_293" x1="10.5835" y1="-0.5" x2="28.8335" y2="38.25" gradientUnits="userSpaceOnUse">
<stop stop-color="#2D59F3"/>
<stop offset="1" stop-color="#D82DF3"/>
</linearGradient>
<linearGradient id="paint1_linear_1119_293" x1="10.5835" y1="-0.5" x2="28.8335" y2="38.25" gradientUnits="userSpaceOnUse">
<stop stop-color="#2D59F3"/>
<stop offset="1" stop-color="#D82DF3"/>
</linearGradient>
</defs>
</svg>
