<svg xmlns="http://www.w3.org/2000/svg" width="13" height="13" viewBox="0 0 13 13" fill="none">
  <path d="M2.23592 1.83332H4.85506L5.69927 3.94384L4.34309 4.84796C4.1808 4.95615 4.08333 5.13828 4.08333 5.33332C4.08481 5.38794 4.08333 5.33391 4.08333 5.33391L4.08333 5.33452L4.08333 5.33582L4.08335 5.33877L4.08344 5.34596C4.08352 5.35134 4.08367 5.35787 4.08392 5.36552C4.08441 5.38081 4.0853 5.40058 4.0869 5.42453C4.09009 5.47242 4.09611 5.53716 4.10742 5.61634C4.13003 5.77459 4.17391 5.99139 4.2591 6.24696C4.43015 6.76012 4.76625 7.42454 5.42085 8.07913C6.07544 8.73373 6.73987 9.06983 7.25303 9.24089C7.5086 9.32608 7.72539 9.36996 7.88364 9.39256C7.96282 9.40388 8.02756 9.40989 8.07545 9.41309C8.0994 9.41468 8.11917 9.41558 8.13447 9.41607C8.14211 9.41632 8.14864 9.41646 8.15402 9.41655L8.16122 9.41663L8.16416 9.41665L8.16546 9.41666H8.16608C8.16608 9.41666 8.2312 9.41309 8.16666 9.41666C8.38761 9.41666 8.5896 9.29182 8.68841 9.0942L9.07907 8.31288L11.6667 8.74415V11.2641C10.4352 11.4422 7.10931 11.6177 4.49581 9.00418C1.8823 6.39067 2.05783 3.0648 2.23592 1.83332ZM5.29296 5.61687L6.34642 4.91457C6.80546 4.60854 6.98738 4.02279 6.78249 3.51055L5.93828 1.40003C5.76111 0.957099 5.33211 0.666656 4.85506 0.666656H2.20545C1.67548 0.666656 1.17663 1.03483 1.08963 1.60985C0.891697 2.91803 0.622286 6.78057 3.67085 9.82913C6.71941 12.8777 10.582 12.6083 11.8901 12.4104C12.4651 12.3234 12.8333 11.8245 12.8333 11.2945V8.74415C12.8333 8.17383 12.421 7.68711 11.8585 7.59335L9.27087 7.16209C8.76566 7.07789 8.26462 7.33303 8.03557 7.79113L7.83345 8.19538C7.76992 8.17978 7.699 8.15977 7.62196 8.13409C7.26012 8.01348 6.75788 7.76625 6.24581 7.25418C5.73373 6.74211 5.48651 6.23986 5.36589 5.87802C5.3333 5.78025 5.30984 5.69233 5.29296 5.61687Z" fill="white" class="white-fill-svg" fill-opacity="0.4"/>
</svg>