<svg xmlns="http://www.w3.org/2000/svg" width="16" height="17" viewBox="0 0 16 17" fill="none">
  <path d="M13.9 14.5001H2.1C2.04477 14.5001 2 14.4553 2 14.4001V12.0738C2 12.0186 2.04477 11.9738 2.1 11.9738H4.42632C4.48154 11.9738 4.52632 11.929 4.52632 11.8738V8.91591C4.52632 8.86068 4.57109 8.81591 4.62632 8.81591H7.58421C7.63944 8.81591 7.68421 8.77114 7.68421 8.71591V5.75802C7.68421 5.70279 7.72898 5.65802 7.78421 5.65802H10.7421C10.7973 5.65802 10.8421 5.61325 10.8421 5.55802V2.60012C10.8421 2.54489 10.8869 2.50012 10.9421 2.50012H13.9C13.9552 2.50012 14 2.54489 14 2.60012V14.4001C14 14.4553 13.9552 14.5001 13.9 14.5001Z" stroke="white" class="white-stroke-svg" stroke-linejoin="round"/>
</svg>