<svg xmlns="http://www.w3.org/2000/svg" width="20" height="20" viewBox="0 0 20 20" fill="none">
  <path d="M10 3.33337C10.4602 3.33337 10.8333 3.70647 10.8333 4.16671V15.8334C10.8333 16.2936 10.4602 16.6667 10 16.6667C9.53976 16.6667 9.16667 16.2936 9.16667 15.8334V4.16671C9.16667 3.70647 9.53976 3.33337 10 3.33337ZM14.1667 6.66671C14.6269 6.66671 15 7.0398 15 7.50004V15.8334C15 16.2936 14.6269 16.6667 14.1667 16.6667C13.7064 16.6667 13.3333 16.2936 13.3333 15.8334V7.50004C13.3333 7.0398 13.7064 6.66671 14.1667 6.66671ZM5.83333 10C6.29357 10 6.66667 10.3731 6.66667 10.8334V15.8334C6.66667 16.2936 6.29357 16.6667 5.83333 16.6667C5.3731 16.6667 5 16.2936 5 15.8334V10.8334C5 10.3731 5.3731 10 5.83333 10Z" fill="white" fill-opacity="0.4"/>
</svg>