<svg xmlns="http://www.w3.org/2000/svg" width="24" height="24" viewBox="0 0 24 24" fill="none">
  <g opacity="0.4">
    <path d="M7.46462 7.05024C7.46462 6.49795 7.91234 6.05024 8.46462 6.05024L16.9499 6.05024C17.2151 6.05024 17.4695 6.1556 17.657 6.34313C17.8445 6.53067 17.9499 6.78502 17.9499 7.05024L17.9499 15.5355C17.9499 16.0878 17.5022 16.5355 16.9499 16.5355C16.3976 16.5355 15.9499 16.0878 15.9499 15.5355V9.46445L7.75752 17.6568C7.36699 18.0474 6.73383 18.0474 6.3433 17.6568C5.95278 17.2663 5.95278 16.6332 6.3433 16.2426L14.5357 8.05024L8.46462 8.05024C7.91234 8.05024 7.46462 7.60252 7.46462 7.05024Z" fill="white" class="white-fill-svg"/>
  </g>
</svg>