<svg xmlns="http://www.w3.org/2000/svg" width="10" height="11" viewBox="0 0 10 11" fill="none">
<path d="M5.00008 7.5C4.33704 7.5 3.70116 7.23661 3.23231 6.76777C2.76347 6.29893 2.50008 5.66304 2.50008 5C2.50008 4.33696 2.76347 3.70107 3.23231 3.23223C3.70116 2.76339 4.33704 2.5 5.00008 2.5C5.66312 2.5 6.29901 2.76339 6.76785 3.23223C7.23669 3.70107 7.50008 4.33696 7.50008 5C7.50008 5.66304 7.23669 6.29893 6.76785 6.76777C6.29901 7.23661 5.66312 7.5 5.00008 7.5ZM4.58342 0.416666H5.41675V1.66667H4.58342V0.416666ZM4.58342 8.33333H5.41675V9.58333H4.58342V8.33333ZM1.46466 2.05375L2.05383 1.46458L2.93758 2.34833L2.34841 2.9375L1.46466 2.05375ZM7.06258 7.65167L7.65175 7.0625L8.5355 7.94625L7.94633 8.53542L7.06258 7.65167ZM7.94633 1.46417L8.5355 2.05375L7.65175 2.9375L7.06258 2.34833L7.94633 1.46458V1.46417ZM2.34841 7.0625L2.93758 7.65167L2.05383 8.53542L1.46466 7.94625L2.34841 7.0625ZM9.58342 4.58333V5.41667H8.33342V4.58333H9.58342ZM1.66675 4.58333V5.41667H0.416748V4.58333H1.66675Z" fill="black"/>
</svg>