<svg xmlns="http://www.w3.org/2000/svg" width="12" height="12" viewBox="0 0 12 12" fill="none">
  <path d="M4.99999 2.58599C4.99999 1.89099 4.21149 1.33949 3.24999 1.49999C1.83849 1.73499 1.19349 4.50299 1.24999 4.99999C1.28999 5.35149 2.11249 5.86099 3.07799 5.49999C3.70849 5.26399 4.05799 4.77499 4.24999 4.24999" stroke="white" stroke-opacity="0.8" stroke-width="0.8" stroke-linecap="round" stroke-linejoin="round"/>
  <path d="M7.13354 2.58599C7.13354 1.89099 7.92204 1.33949 8.88354 1.49999C10.295 1.73499 10.94 4.50299 10.8835 4.99999C10.8435 5.35149 10.021 5.86099 9.05554 5.49999C8.42504 5.26399 8.12804 4.77499 7.93604 4.24999" stroke="white" stroke-opacity="0.8" stroke-width="0.8" stroke-linecap="round" stroke-linejoin="round"/>
  <path d="M4 7V7.25" stroke="white" stroke-opacity="0.8" stroke-width="0.8" stroke-linecap="round" stroke-linejoin="round"/>
  <path d="M8 7V7.25" stroke="white" stroke-opacity="0.8" stroke-width="0.8" stroke-linecap="round" stroke-linejoin="round"/>
  <path d="M5.625 8.125H6.375L6 8.5L5.625 8.125Z" stroke="white" stroke-opacity="0.8" stroke-width="0.8" stroke-linecap="round" stroke-linejoin="round"/>
  <path d="M2.21 5.62348C2.07007 6.16384 1.9995 6.71981 2 7.27798C2 9.36398 3.791 10.5 6 10.5C8.209 10.5 10 9.36398 10 7.27798C10 6.74748 9.919 6.17798 9.7535 5.62348M5.132 2.58248C5.41789 2.52632 5.70865 2.49868 6 2.49998C6.39 2.49998 6.75 2.55398 7.0805 2.65298" stroke="white" stroke-opacity="0.8" stroke-width="0.8" stroke-linecap="round" stroke-linejoin="round"/>
</svg>