<svg xmlns="http://www.w3.org/2000/svg" width="12" height="12" viewBox="0 0 12 12" fill="none">
  <path d="M8.49997 2.25C9.51736 2.92839 10.2149 3.99161 10.432 5.195C10.813 5.44138 11.0306 5.87489 11.0005 6.32764C10.9704 6.78038 10.6973 7.18126 10.287 7.375C9.68892 9.23618 7.95763 10.4983 6.00272 10.4983C4.04782 10.4983 2.31653 9.23618 1.71847 7.375C1.30817 7.18126 1.03508 6.78038 1.00496 6.32764C0.974848 5.87489 1.19244 5.44138 1.57347 5.195C1.78619 4.01594 2.46032 2.97039 3.44647 2.29" stroke="white" stroke-opacity="0.8" stroke-width="0.8" stroke-linecap="round" stroke-linejoin="round"/>
  <path d="M8.49997 2.25C9.51736 2.92839 10.2149 3.99161 10.432 5.195C10.813 5.44138 11.0306 5.87489 11.0005 6.32764C10.9704 6.78038 10.6973 7.18126 10.287 7.375C9.68892 9.23618 7.95763 10.4983 6.00272 10.4983C4.04782 10.4983 2.31653 9.23618 1.71847 7.375C1.30817 7.18126 1.03508 6.78038 1.00496 6.32764C0.974848 5.87489 1.19244 5.44138 1.57347 5.195C1.78619 4.01594 2.46032 2.97039 3.44647 2.29" stroke="white" stroke-opacity="0.8" stroke-width="0.8" stroke-linecap="round" stroke-linejoin="round"/>
  <path d="M4.75 8C5.07916 8.33594 5.52968 8.52526 6 8.52526C6.47032 8.52526 6.92084 8.33594 7.25 8" stroke="white" stroke-opacity="0.8" stroke-width="0.8" stroke-linecap="round" stroke-linejoin="round"/>
  <path d="M4.75 8C5.07916 8.33594 5.52968 8.52526 6 8.52526C6.47032 8.52526 6.92084 8.33594 7.25 8" stroke="white" stroke-opacity="0.8" stroke-width="0.8" stroke-linecap="round" stroke-linejoin="round"/>
  <path d="M4.25 1C5 1.5 5.5 2.75 5.5 3.5" stroke="white" stroke-opacity="0.8" stroke-width="0.8" stroke-linecap="round" stroke-linejoin="round"/>
  <path d="M4.25 1C5 1.5 5.5 2.75 5.5 3.5" stroke="white" stroke-opacity="0.8" stroke-width="0.8" stroke-linecap="round" stroke-linejoin="round"/>
  <path d="M6.25 1C7 2 7.25 2.75 7.25 3.5" stroke="white" stroke-opacity="0.8" stroke-width="0.8" stroke-linecap="round" stroke-linejoin="round"/>
  <path d="M6.25 1C7 2 7.25 2.75 7.25 3.5" stroke="white" stroke-opacity="0.8" stroke-width="0.8" stroke-linecap="round" stroke-linejoin="round"/>
  <path d="M4.49994 6H4.50494" stroke="white" stroke-opacity="0.8" stroke-width="0.8" stroke-linecap="round" stroke-linejoin="round"/>
  <path d="M4.49994 6H4.50494" stroke="white" stroke-opacity="0.8" stroke-width="0.8" stroke-linecap="round" stroke-linejoin="round"/>
  <path d="M7.49994 6H7.50494" stroke="white" stroke-opacity="0.8" stroke-width="0.8" stroke-linecap="round" stroke-linejoin="round"/>
  <path d="M7.49994 6H7.50494" stroke="white" stroke-opacity="0.8" stroke-width="0.8" stroke-linecap="round" stroke-linejoin="round"/>
</svg>