<svg xmlns="http://www.w3.org/2000/svg" width="22" height="16" viewBox="0 0 22 16" fill="none">
  <rect width="22" height="16" rx="2" fill="white"/>
  <mask id="mask0_300_9821" style="mask-type:luminance" maskUnits="userSpaceOnUse" x="0" y="0" width="22" height="16">
    <rect width="22" height="16" rx="2" fill="white"/>
  </mask>
  <g mask="url(#mask0_300_9821)">
    <path fill-rule="evenodd" clip-rule="evenodd" d="M22 0H0V1.06667H22V0ZM22 2.13333H0V3.2H22V2.13333ZM0 4.26667H22V5.33333H0V4.26667ZM22 6.4H0V7.46667H22V6.4ZM0 8.53333H22V9.6H0V8.53333ZM22 10.6667H0V11.7333H22V10.6667ZM0 12.8H22V13.8667H0V12.8ZM22 14.9333H0V16H22V14.9333Z" fill="#D02F44"/>
    <rect width="9.42857" height="7.46667" fill="#46467F"/>
    <g filter="url(#filter0_d_300_9821)">
      <path fill-rule="evenodd" clip-rule="evenodd" d="M2.09523 1.60001C2.09523 1.89457 1.86071 2.13335 1.57142 2.13335C1.28212 2.13335 1.04761 1.89457 1.04761 1.60001C1.04761 1.30546 1.28212 1.06668 1.57142 1.06668C1.86071 1.06668 2.09523 1.30546 2.09523 1.60001ZM4.19046 1.60001C4.19046 1.89457 3.95595 2.13335 3.66666 2.13335C3.37736 2.13335 3.14285 1.89457 3.14285 1.60001C3.14285 1.30546 3.37736 1.06668 3.66666 1.06668C3.95595 1.06668 4.19046 1.30546 4.19046 1.60001ZM5.76189 2.13335C6.05119 2.13335 6.2857 1.89457 6.2857 1.60001C6.2857 1.30546 6.05119 1.06668 5.76189 1.06668C5.4726 1.06668 5.23808 1.30546 5.23808 1.60001C5.23808 1.89457 5.4726 2.13335 5.76189 2.13335ZM8.38094 1.60001C8.38094 1.89457 8.14642 2.13335 7.85713 2.13335C7.56784 2.13335 7.33332 1.89457 7.33332 1.60001C7.33332 1.30546 7.56784 1.06668 7.85713 1.06668C8.14642 1.06668 8.38094 1.30546 8.38094 1.60001ZM2.61904 3.20001C2.90833 3.20001 3.14285 2.96123 3.14285 2.66668C3.14285 2.37213 2.90833 2.13335 2.61904 2.13335C2.32974 2.13335 2.09523 2.37213 2.09523 2.66668C2.09523 2.96123 2.32974 3.20001 2.61904 3.20001ZM5.23808 2.66668C5.23808 2.96123 5.00357 3.20001 4.71427 3.20001C4.42498 3.20001 4.19046 2.96123 4.19046 2.66668C4.19046 2.37213 4.42498 2.13335 4.71427 2.13335C5.00357 2.13335 5.23808 2.37213 5.23808 2.66668ZM6.80951 3.20001C7.0988 3.20001 7.33332 2.96123 7.33332 2.66668C7.33332 2.37213 7.0988 2.13335 6.80951 2.13335C6.52022 2.13335 6.2857 2.37213 6.2857 2.66668C6.2857 2.96123 6.52022 3.20001 6.80951 3.20001ZM8.38094 3.73335C8.38094 4.0279 8.14642 4.26668 7.85713 4.26668C7.56784 4.26668 7.33332 4.0279 7.33332 3.73335C7.33332 3.4388 7.56784 3.20001 7.85713 3.20001C8.14642 3.20001 8.38094 3.4388 8.38094 3.73335ZM5.76189 4.26668C6.05119 4.26668 6.2857 4.0279 6.2857 3.73335C6.2857 3.4388 6.05119 3.20001 5.76189 3.20001C5.4726 3.20001 5.23808 3.4388 5.23808 3.73335C5.23808 4.0279 5.4726 4.26668 5.76189 4.26668ZM4.19046 3.73335C4.19046 4.0279 3.95595 4.26668 3.66666 4.26668C3.37736 4.26668 3.14285 4.0279 3.14285 3.73335C3.14285 3.4388 3.37736 3.20001 3.66666 3.20001C3.95595 3.20001 4.19046 3.4388 4.19046 3.73335ZM1.57142 4.26668C1.86071 4.26668 2.09523 4.0279 2.09523 3.73335C2.09523 3.4388 1.86071 3.20001 1.57142 3.20001C1.28212 3.20001 1.04761 3.4388 1.04761 3.73335C1.04761 4.0279 1.28212 4.26668 1.57142 4.26668ZM3.14285 4.80001C3.14285 5.09457 2.90833 5.33335 2.61904 5.33335C2.32974 5.33335 2.09523 5.09457 2.09523 4.80001C2.09523 4.50546 2.32974 4.26668 2.61904 4.26668C2.90833 4.26668 3.14285 4.50546 3.14285 4.80001ZM4.71427 5.33335C5.00357 5.33335 5.23808 5.09457 5.23808 4.80001C5.23808 4.50546 5.00357 4.26668 4.71427 4.26668C4.42498 4.26668 4.19046 4.50546 4.19046 4.80001C4.19046 5.09457 4.42498 5.33335 4.71427 5.33335ZM7.33332 4.80001C7.33332 5.09457 7.0988 5.33335 6.80951 5.33335C6.52022 5.33335 6.2857 5.09457 6.2857 4.80001C6.2857 4.50546 6.52022 4.26668 6.80951 4.26668C7.0988 4.26668 7.33332 4.50546 7.33332 4.80001ZM7.85713 6.40001C8.14642 6.40001 8.38094 6.16123 8.38094 5.86668C8.38094 5.57213 8.14642 5.33335 7.85713 5.33335C7.56784 5.33335 7.33332 5.57213 7.33332 5.86668C7.33332 6.16123 7.56784 6.40001 7.85713 6.40001ZM6.2857 5.86668C6.2857 6.16123 6.05119 6.40001 5.76189 6.40001C5.4726 6.40001 5.23808 6.16123 5.23808 5.86668C5.23808 5.57213 5.4726 5.33335 5.76189 5.33335C6.05119 5.33335 6.2857 5.57213 6.2857 5.86668ZM3.66666 6.40001C3.95595 6.40001 4.19046 6.16123 4.19046 5.86668C4.19046 5.57213 3.95595 5.33335 3.66666 5.33335C3.37736 5.33335 3.14285 5.57213 3.14285 5.86668C3.14285 6.16123 3.37736 6.40001 3.66666 6.40001ZM2.09523 5.86668C2.09523 6.16123 1.86071 6.40001 1.57142 6.40001C1.28212 6.40001 1.04761 6.16123 1.04761 5.86668C1.04761 5.57213 1.28212 5.33335 1.57142 5.33335C1.86071 5.33335 2.09523 5.57213 2.09523 5.86668Z" fill="url(#paint0_linear_300_9821)"/>
    </g>
  </g>
  <defs>
    <filter id="filter0_d_300_9821" x="1.04761" y="1.06668" width="7.33325" height="6.33334" filterUnits="userSpaceOnUse" color-interpolation-filters="sRGB">
      <feFlood flood-opacity="0" result="BackgroundImageFix"/>
      <feColorMatrix in="SourceAlpha" type="matrix" values="0 0 0 0 0 0 0 0 0 0 0 0 0 0 0 0 0 0 127 0" result="hardAlpha"/>
      <feOffset dy="1"/>
      <feColorMatrix type="matrix" values="0 0 0 0 0 0 0 0 0 0 0 0 0 0 0 0 0 0 0.06 0"/>
      <feBlend mode="normal" in2="BackgroundImageFix" result="effect1_dropShadow_300_9821"/>
      <feBlend mode="normal" in="SourceGraphic" in2="effect1_dropShadow_300_9821" result="shape"/>
    </filter>
    <linearGradient id="paint0_linear_300_9821" x1="1.04761" y1="1.06668" x2="1.04761" y2="6.40001" gradientUnits="userSpaceOnUse">
      <stop stop-color="white"/>
      <stop offset="1" stop-color="#F0F0F0"/>
    </linearGradient>
  </defs>
</svg>