<svg xmlns="http://www.w3.org/2000/svg" width="21" height="21" viewBox="0 0 21 21" fill="none">
  <path d="M8.75 3.5C6.817 3.5 5.25 5.067 5.25 7C5.25 8.933 6.817 10.5 8.75 10.5C10.683 10.5 12.25 8.933 12.25 7C12.25 5.067 10.683 3.5 8.75 3.5ZM3.5 7C3.5 4.10051 5.85051 1.75 8.75 1.75C11.6495 1.75 14 4.10051 14 7C14 9.8995 11.6495 12.25 8.75 12.25C5.85051 12.25 3.5 9.8995 3.5 7ZM18.9563 9.84602C19.3175 10.1671 19.35 10.7201 19.029 11.0813L16.6957 13.7063C16.5296 13.8931 16.2916 14 16.0417 14C15.7917 14 15.5537 13.8931 15.3877 13.7063L14.221 12.3938C13.9 12.0326 13.9325 11.4796 14.2937 11.1585C14.6549 10.8375 15.2079 10.87 15.529 11.2312L16.0417 11.808L17.721 9.91868C18.0421 9.5575 18.5951 9.52496 18.9563 9.84602ZM5.6875 15.75C4.58547 15.75 3.5 16.8118 3.5 18.375C3.5 18.8582 3.10825 19.25 2.625 19.25C2.14175 19.25 1.75 18.8582 1.75 18.375C1.75 16.0722 3.40678 14 5.6875 14H11.8125C14.0932 14 15.75 16.0722 15.75 18.375C15.75 18.8582 15.3583 19.25 14.875 19.25C14.3918 19.25 14 18.8582 14 18.375C14 16.8118 12.9145 15.75 11.8125 15.75H5.6875Z" fill="url(#paint0_linear_933_356)"/>
  <defs>
    <linearGradient id="paint0_linear_933_356" x1="6.5" y1="-1.5" x2="13" y2="22" gradientUnits="userSpaceOnUse">
      <stop stop-color="#2DF47D"/>
      <stop offset="1" stop-color="#2DF4DC"/>
    </linearGradient>
  </defs>
</svg>