<svg xmlns="http://www.w3.org/2000/svg" width="18" height="18" viewBox="0 0 18 18" fill="none">
  <path d="M7.5 3C5.84315 3 4.5 4.34315 4.5 6C4.5 7.65685 5.84315 9 7.5 9C9.15685 9 10.5 7.65685 10.5 6C10.5 4.34315 9.15685 3 7.5 3ZM3 6C3 3.51472 5.01472 1.5 7.5 1.5C9.98528 1.5 12 3.51472 12 6C12 8.48528 9.98528 10.5 7.5 10.5C5.01472 10.5 3 8.48528 3 6ZM16.2483 8.43944C16.5579 8.71463 16.5857 9.18869 16.3106 9.49827L14.3106 11.7483C14.1682 11.9084 13.9642 12 13.75 12C13.5358 12 13.3318 11.9084 13.1894 11.7483L12.1894 10.6233C11.9143 10.3137 11.9421 9.83963 12.2517 9.56444C12.5613 9.28925 13.0354 9.31714 13.3106 9.62673L13.75 10.1211L15.1894 8.50173C15.4646 8.19214 15.9387 8.16425 16.2483 8.43944ZM4.875 13.5C3.93041 13.5 3 14.4102 3 15.75C3 16.1642 2.66421 16.5 2.25 16.5C1.83579 16.5 1.5 16.1642 1.5 15.75C1.5 13.7761 2.9201 12 4.875 12H10.125C12.0799 12 13.5 13.7761 13.5 15.75C13.5 16.1642 13.1642 16.5 12.75 16.5C12.3358 16.5 12 16.1642 12 15.75C12 14.4102 11.0696 13.5 10.125 13.5H4.875Z" fill="#7ECEFD" class="white-fill-svg"/>
</svg>