<svg xmlns="http://www.w3.org/2000/svg" width="18" height="18" viewBox="0 0 18 18" fill="none">
  <path d="M9 3C7.34315 3 6 4.34315 6 6C6 7.65685 7.34315 9 9 9C10.6569 9 12 7.65685 12 6C12 4.34315 10.6569 3 9 3ZM4.5 6C4.5 3.51472 6.51472 1.5 9 1.5C11.4853 1.5 13.5 3.51472 13.5 6C13.5 8.48528 11.4853 10.5 9 10.5C6.51472 10.5 4.5 8.48528 4.5 6ZM6 13.5C4.75736 13.5 3.75 14.5074 3.75 15.75C3.75 16.1642 3.41421 16.5 3 16.5C2.58579 16.5 2.25 16.1642 2.25 15.75C2.25 13.6789 3.92893 12 6 12H12C14.0711 12 15.75 13.6789 15.75 15.75C15.75 16.1642 15.4142 16.5 15 16.5C14.5858 16.5 14.25 16.1642 14.25 15.75C14.25 14.5074 13.2426 13.5 12 13.5H6Z" fill="white"/>
</svg>