<svg xmlns="http://www.w3.org/2000/svg" width="21" height="21" viewBox="0 0 21 21" fill="none">
  <path d="M8.75 3.5C6.817 3.5 5.25 5.067 5.25 7C5.25 8.933 6.817 10.5 8.75 10.5C10.683 10.5 12.25 8.933 12.25 7C12.25 5.067 10.683 3.5 8.75 3.5ZM3.5 7C3.5 4.10051 5.8505 1.75 8.75 1.75C11.6495 1.75 14 4.10051 14 7C14 9.8995 11.6495 12.25 8.75 12.25C5.8505 12.25 3.5 9.8995 3.5 7ZM14.7249 3.28769C15.0666 2.94598 15.6206 2.94598 15.9623 3.28769C18.0126 5.33794 18.0126 8.66206 15.9623 10.7123C15.6206 11.054 15.0666 11.054 14.7249 10.7123C14.3832 10.3706 14.3832 9.81658 14.7249 9.47487C16.0917 8.10804 16.0917 5.89196 14.7249 4.52513C14.3832 4.18342 14.3832 3.6294 14.7249 3.28769ZM15.3386 14.6628C15.4558 14.194 15.9309 13.9089 16.3997 14.0261C17.5616 14.3166 18.2971 15.0596 18.7201 15.9056C19.1294 16.7242 19.25 17.6375 19.25 18.375C19.25 18.8582 18.8582 19.25 18.375 19.25C17.8918 19.25 17.5 18.8582 17.5 18.375C17.5 17.8 17.4018 17.1821 17.1549 16.6882C16.9216 16.2217 16.5634 15.8709 15.9753 15.7239C15.5065 15.6067 15.2214 15.1316 15.3386 14.6628ZM5.6875 15.75C4.58547 15.75 3.5 16.8118 3.5 18.375C3.5 18.8582 3.10825 19.25 2.625 19.25C2.14175 19.25 1.75 18.8582 1.75 18.375C1.75 16.0722 3.40678 14 5.6875 14H11.8125C14.0932 14 15.75 16.0722 15.75 18.375C15.75 18.8582 15.3582 19.25 14.875 19.25C14.3918 19.25 14 18.8582 14 18.375C14 16.8118 12.9145 15.75 11.8125 15.75H5.6875Z" fill="url(#paint0_linear_525_11762)"/>
  <defs>
    <linearGradient id="paint0_linear_525_11762" x1="8" y1="-2.5" x2="15" y2="23" gradientUnits="userSpaceOnUse">
      <stop stop-color="#FD8B39"/>
      <stop offset="1" stop-color="#F12A2A"/>
    </linearGradient>
  </defs>
</svg>