<svg xmlns="http://www.w3.org/2000/svg" width="20" height="20" viewBox="0 0 20 20" fill="none">
  <path d="M11.6 2H8.40005C5.32005 2 2.80005 4.52 2.80005 7.6V10C2.80005 12.16 4.06005 14.14 6.00005 15.06V17.74C6.00005 17.98 6.30005 18.1 6.46005 17.92L8.78005 15.6H11.6C14.68 15.6 17.2 13.08 17.2 10V7.6C17.2 4.52 14.68 2 11.6 2ZM13.7 12.5L12.88 13.3C12.02 14.14 9.80005 13.18 7.84005 11.18C5.88005 9.18 5.02005 6.94 5.84005 6.1L6.64005 5.3C6.94005 5 7.44005 5.02 7.78005 5.32L8.94005 6.52C9.36005 6.94 9.18005 7.66 8.64005 7.82C8.26005 7.94 8.00005 8.36 8.12005 8.74C8.32005 9.62 9.44005 10.74 10.28 10.96C10.66 11.04 11.08 10.84 11.22 10.46C11.4 9.92 12.12 9.76 12.52 10.18L13.68 11.38C14 11.66 14 12.16 13.7 12.5ZM10.72 5.8C10.64 5.8 10.56 5.8 10.48 5.82C10.34 5.84 10.2 5.72 10.18 5.58C10.16 5.44 10.28 5.3 10.42 5.28C10.52 5.26 10.62 5.26 10.72 5.26C12.18 5.26 13.38 6.46 13.38 7.92C13.38 8.02 13.38 8.12 13.36 8.22C13.34 8.36 13.2 8.48 13.06 8.46C12.92 8.44 12.8 8.3 12.82 8.16C12.82 8.08 12.84 8 12.84 7.92C12.86 6.76 11.9 5.8 10.72 5.8ZM12.32 7.94C12.32 8.08 12.2 8.2 12.06 8.2C11.92 8.2 11.8 8.08 11.8 7.94C11.8 7.36 11.32 6.88 10.74 6.88C10.6 6.88 10.48 6.76 10.48 6.62C10.48 6.48 10.6 6.36 10.74 6.36C11.6 6.34 12.32 7.06 12.32 7.94ZM14.36 8.8C14.32 8.94 14.18 9.04 14.02 9C13.88 8.96 13.8 8.82 13.84 8.68C13.9 8.44 13.92 8.2 13.92 7.94C13.92 6.18 12.48 4.74 10.72 4.74C10.64 4.74 10.56 4.74 10.48 4.74C10.34 4.74 10.2 4.64 10.2 4.5C10.2 4.36 10.3 4.22 10.44 4.22C10.54 4.22 10.64 4.2 10.72 4.2C12.78 4.2 14.46 5.88 14.46 7.94C14.46 8.22 14.42 8.52 14.36 8.8Z" fill="white"/>
</svg>