<svg xmlns="http://www.w3.org/2000/svg" width="20" height="20" viewBox="0 0 20 20" fill="none">
  <path d="M6.22048 5.87525C6.22048 5.41501 6.59357 5.04192 7.05381 5.04192L14.1249 5.04192C14.3459 5.04192 14.5579 5.12971 14.7141 5.28599C14.8704 5.44227 14.9582 5.65424 14.9582 5.87525L14.9582 12.9463C14.9582 13.4066 14.5851 13.7797 14.1249 13.7797C13.6646 13.7797 13.2915 13.4066 13.2915 12.9463L13.2915 7.8871L6.46456 14.7141C6.13912 15.0395 5.61148 15.0395 5.28605 14.7141C4.96061 14.3886 4.96061 13.861 5.28605 13.5356L12.113 6.70858L7.05381 6.70858C6.59357 6.70858 6.22048 6.33549 6.22048 5.87525Z" fill="white" fill-opacity="0.2" class="white-fill-svg"/>
</svg>