<svg width="24" height="24" viewBox="0 0 24 24" fill="none" xmlns="http://www.w3.org/2000/svg">
<g id="xbase" opacity="0.4">
<g id="Icon">
<path d="M15.8656 17.5487C15.475 17.9392 14.8419 17.9392 14.4513 17.5487L12.1584 15.2558L9.86555 17.5487C9.47503 17.9392 8.84186 17.9392 8.45134 17.5487C8.06082 17.1582 8.06082 16.525 8.45134 16.1345L10.7442 13.8416L8.45134 11.5487C8.06082 11.1582 8.06082 10.525 8.45134 10.1345C8.84187 9.74398 9.47503 9.74398 9.86555 10.1345L12.1584 12.4274L14.4513 10.1345C14.8419 9.74398 15.475 9.74398 15.8656 10.1345C16.2561 10.525 16.2561 11.1582 15.8656 11.5487L13.5727 13.8416L15.8656 16.1345C16.2561 16.525 16.2561 17.1582 15.8656 17.5487Z" fill="white"/>
<path fill-rule="evenodd" clip-rule="evenodd" d="M19.1584 21.8416C19.7107 21.8416 20.1584 21.3939 20.1584 20.8416L20.1584 9.30155C20.1584 8.7177 19.9033 8.163 19.46 7.78304L13.46 2.64018C12.7111 1.9982 11.6058 1.9982 10.8569 2.64018L4.85687 7.78303C4.41357 8.163 4.15845 8.7177 4.15845 9.30155L4.15845 20.8416C4.15845 21.3939 4.60616 21.8416 5.15845 21.8416L19.1584 21.8416ZM6.15845 19.8416L6.15845 9.30155L12.1584 4.15869L18.1584 9.30155L18.1584 19.8416L6.15845 19.8416Z" fill="white"/>
</g>
</g>
</svg>
